<?xml version="1.0" standalone="no"?>
<!DOCTYPE svg PUBLIC "-//W3C//DTD SVG 1.1//EN" "http://www.w3.org/Graphics/SVG/1.1/DTD/svg11.dtd" >
<svg xmlns="http://www.w3.org/2000/svg">
<metadata>Generated by IcoMoon</metadata>
<defs>
<font id="icomoon" horiz-adv-x="1024">
<font-face units-per-em="1024" ascent="960" descent="-64" />
<missing-glyph horiz-adv-x="1024" />
<glyph unicode="&#x20;" horiz-adv-x="512" d="" />
<glyph unicode="&#xe900;" glyph-name="dm-file-format-symbol" d="M908.038 593.729h-24.589v118.643c0 0.746-0.117 1.485-0.216 2.24-0.039 4.711-1.537 9.338-4.763 13.001l-197.432 225.519c-0.059 0.063-0.117 0.084-0.158 0.141-1.177 1.314-2.549 2.413-3.999 3.354-0.429 0.294-0.863 0.534-1.313 0.785-1.257 0.68-2.59 1.255-3.962 1.666-0.372 0.099-0.706 0.251-1.078 0.353-1.491 0.348-3.040 0.569-4.609 0.569h-485.215c-22.157 0-40.157-18.020-40.157-40.159v-326.112h-24.583c-31.696 0-57.396-25.689-57.396-57.391v-298.465c0-31.687 25.7-57.402 57.396-57.402h24.585v-204.313c0-22.136 18-40.159 40.157-40.159h662.587c22.136 0 40.157 18.020 40.157 40.159v204.313h24.589c31.687 0 57.393 25.706 57.393 57.391v298.462c-0.002 31.716-25.708 57.406-57.394 57.406zM180.706 919.841h465.136v-205.45c0-11.093 9-20.078 20.078-20.078h177.372v-100.593h-662.587v326.121zM590.353 406.803c0-49.861-18.137-84.253-43.256-105.49-27.426-22.813-69.181-33.628-120.177-33.628-30.53 0-52.157 1.941-66.863 3.863v255.832c21.642 3.451 49.861 5.391 79.613 5.391 49.45 0 81.524-8.887 106.642-27.823 27.059-20.095 44.040-52.159 44.040-98.146zM130.883 278.989l12.529 46c10.883-5.657 35.903-16.128 60.917-16.128 31.867 0 48 15.325 48 35.078 0 25.816-25.843 37.521-52.849 37.521h-25.039v43.981h23.804c20.593 0.392 46.803 8.069 46.803 30.259 0 15.739-12.923 27.426-38.74 27.426-21.352 0-43.961-9.273-54.842-15.721l-12.51 44.373c15.741 10.078 47.192 19.77 81.094 19.77 56.063 0 87.142-29.456 87.142-65.357 0-27.84-15.721-49.642-48.013-60.917v-0.805c31.471-5.646 56.902-29.452 56.902-63.745 0-46.392-40.77-80.293-107.334-80.293-33.884-0.019-62.537 8.874-77.865 18.56zM843.294-12.96h-662.589v193.431h662.587v-193.431zM853.118 270.393l-3.863 99.676c-1.156 31.304-2.324 69.196-2.324 107.057h-1.156c-8.096-33.226-18.922-70.325-28.98-100.853l-31.707-101.628h-45.961l-27.814 100.853c-8.489 30.53-17.362 67.618-23.588 101.628h-0.746c-1.569-35.167-2.716-75.363-4.627-107.804l-4.646-98.931h-54.481l16.609 260.43h78.44l25.49-86.921c8.096-30.138 16.217-62.609 22.038-93.138h1.138c7.342 30.147 16.234 64.539 24.745 93.51l27.823 86.549h76.874l14.323-260.43h-57.586zM445.843 487.554c-13.142 0-21.623-1.13-26.643-2.307v-170.412c5.020-1.156 13.142-1.156 20.471-1.156 53.314-0.392 88.092 28.98 88.092 91.197 0.394 54.1-31.293 82.678-81.92 82.678z" />
<glyph unicode="&#xe901;" glyph-name="ds-file-format-extension" d="M506.529 476.441c-13.996 0-23.018-1.246-28.358-2.462v-181.232c5.34-1.218 13.972-1.218 21.776-1.218 56.71-0.43 93.7 30.803 93.7 96.98 0.392 57.528-33.285 87.931-87.119 87.931zM908.039 593.73h-24.589v118.643c0 0.745-0.116 1.485-0.215 2.241-0.039 4.71-1.541 9.338-4.766 12.999l-197.428 225.521c-0.062 0.063-0.12 0.082-0.159 0.14-1.177 1.315-2.547 2.413-4.002 3.354-0.428 0.293-0.861 0.534-1.311 0.783-1.255 0.682-2.59 1.255-3.961 1.668-0.374 0.097-0.708 0.25-1.078 0.351-1.492 0.351-3.040 0.571-4.607 0.571h-485.217c-22.156 0-40.156-18.021-40.156-40.158v-326.111h-24.585c-31.695 0-57.396-25.691-57.396-57.392v-298.465c0-31.686 25.7-57.403 57.396-57.403h24.585v-204.316c0-22.139 18-40.156 40.156-40.156h662.587c22.137 0 40.156 18.017 40.156 40.156v204.314h24.589c31.686 0 57.39 25.706 57.39 57.394v298.459c0.002 31.716-25.702 57.407-57.388 57.407zM180.705 919.842h465.139v-205.45c0-11.094 8.996-20.079 20.079-20.079h177.372v-100.592h-662.589v326.12zM660.213 390.559c0-53.011-19.313-89.599-46.018-112.186-29.167-24.255-73.551-35.763-127.805-35.763-32.454 0-55.476 2.058-71.078 4.107v272.064c23.020 3.672 53.009 5.73 84.642 5.73 52.581 0 86.712-9.458 113.417-29.576 28.767-21.375 46.842-55.481 46.842-104.376zM169.795 252.371l13.544 49.806c11.794-6.126 38.873-17.49 65.955-17.49 34.514 0 51.976 16.609 51.976 38 0 27.981-27.941 40.656-57.226 40.656h-27.073v47.598h25.76c22.298 0.45 50.697 8.744 50.697 32.786 0 17.014-14.005 29.677-41.951 29.677-23.144 0-47.609-10.038-59.402-17.010l-13.555 48.039c17.035 10.922 51.128 21.422 87.795 21.422 60.735 0 94.378-31.903 94.378-70.792 0-30.138-17.040-53.728-51.995-65.961v-0.863c34.073-6.102 61.574-31.893 61.574-69.020 0-50.233-44.095-86.94-116.179-86.94-36.702-0.026-67.711 9.601-84.299 20.092zM843.295-12.96h-662.589v193.43h662.587v-193.43zM769.088 241.38c-31.619 0-62.875 8.216-78.483 16.853l12.747 51.774c16.852-8.617 42.748-17.261 69.453-17.261 28.765 0 43.96 11.921 43.96 29.998 0 17.266-13.137 27.118-46.42 39.039-46.022 16.039-76.038 41.512-76.038 81.785 0 47.249 39.459 83.432 104.811 83.432 31.204 0 54.226-6.589 70.669-13.985l-13.981-50.549c-11.097 5.332-30.823 13.161-57.939 13.161-27.12 0-40.257-12.328-40.257-26.726 0-17.664 15.589-25.469 51.343-39.039 48.9-18.079 71.922-43.538 71.922-82.588-0.002-46.431-35.757-85.896-111.786-85.896z" />
<glyph unicode="&#xe902;" glyph-name="g2-file-format" d="M908.039 593.73h-24.589v118.643c0 0.745-0.116 1.485-0.215 2.241-0.039 4.71-1.541 9.338-4.766 12.999l-197.428 225.521c-0.062 0.063-0.12 0.082-0.159 0.14-1.177 1.315-2.547 2.413-4.002 3.354-0.428 0.293-0.861 0.534-1.311 0.783-1.255 0.682-2.59 1.255-3.961 1.668-0.374 0.097-0.708 0.25-1.078 0.351-1.492 0.351-3.040 0.571-4.607 0.571h-485.217c-22.156 0-40.156-18.021-40.156-40.158v-326.111h-24.585c-31.695 0-57.396-25.691-57.396-57.392v-298.465c0-31.686 25.7-57.403 57.396-57.403h24.585v-204.316c0-22.139 18-40.156 40.156-40.156h662.587c22.137 0 40.156 18.017 40.156 40.156v204.314h24.589c31.686 0 57.39 25.706 57.39 57.394v298.459c0.002 31.716-25.702 57.407-57.388 57.407zM180.705 919.842h465.139v-205.45c0-11.094 8.996-20.079 20.079-20.079h177.372v-100.592h-662.589v326.12zM539.313 300.629c14.472 0 26.001 1.645 30.941 4.137v58.156h-42.894v49.118h103.56v-146.492c-19.373-6.587-56.098-15.684-92.841-15.684-50.768 0-87.487 12.795-113.060 37.558-25.588 23.93-39.603 60.235-39.192 101.079 0.413 92.447 67.688 145.252 158.879 145.252 35.881 0 63.531-6.994 77.146-13.604l-13.193-50.336c-15.268 6.587-34.226 11.96-64.777 11.96-52.42 0-92.023-29.706-92.023-89.958-0.009-57.347 35.866-91.187 87.455-91.187zM158.079 267.217l12.76 47.017c11.157-5.763 36.745-16.491 62.334-16.491 32.588 0 49.102 15.688 49.102 35.905 0 26.391-26.412 38.37-54.083 38.37h-25.568v44.974h24.337c21.059 0.409 47.863 8.244 47.863 30.939 0 16.104-13.191 28.059-39.603 28.059-21.866 0-44.965-9.465-56.118-16.082l-12.78 45.378c16.104 10.334 48.274 20.221 82.96 20.221 57.353 0 89.117-30.099 89.117-66.844 0-28.463-16.103-50.749-49.122-62.306v-0.807c32.194-5.786 58.201-30.138 58.201-65.195 0-47.471-41.663-82.138-109.769-82.138-34.676-0.004-63.968 9.077-79.63 18.999zM843.295-12.96h-662.589v193.43h662.587v-193.43zM860.333 252.764h-190.234v37.961l34.665 31.355c58.587 52.409 87.057 82.547 87.883 113.899 0 21.868-13.197 39.196-44.136 39.196-23.101 0-43.325-11.544-57.39-22.275l-17.707 44.976c20.195 15.258 51.589 27.626 87.883 27.626 60.666 0 94.078-35.472 94.078-84.161 0-44.989-32.588-80.885-71.394-115.572l-24.765-20.617v-0.82h101.119v-51.569z" />
<glyph unicode="&#xe903;" glyph-name="gp-file-format" d="M791.156 484.412c-12.978 0-21.765-1.276-26.373-2.531v-83.313c5.452-1.253 12.14-1.666 21.354-1.666 33.884 0 54.824 17.156 54.824 46.057 0 25.941-17.983 41.452-49.806 41.452zM908.039 593.73h-24.589v118.643c0 0.745-0.116 1.485-0.215 2.241-0.039 4.71-1.541 9.338-4.766 12.999l-197.428 225.521c-0.062 0.063-0.12 0.082-0.159 0.14-1.177 1.315-2.547 2.413-4.002 3.354-0.428 0.293-0.861 0.534-1.311 0.783-1.255 0.682-2.59 1.255-3.961 1.668-0.374 0.097-0.708 0.25-1.078 0.351-1.492 0.351-3.040 0.571-4.607 0.571h-485.217c-22.156 0-40.156-18.021-40.156-40.158v-326.111h-24.585c-31.695 0-57.396-25.691-57.396-57.392v-298.465c0-31.686 25.7-57.403 57.396-57.403h24.585v-204.316c0-22.139 18-40.156 40.156-40.156h662.587c22.137 0 40.156 18.017 40.156 40.156v204.314h24.589c31.686 0 57.39 25.706 57.39 57.394v298.459c0.002 31.716-25.702 57.407-57.388 57.407zM180.705 919.842h465.139v-205.45c0-11.094 8.996-20.079 20.079-20.079h177.372v-100.592h-662.589v326.12zM558.843 296.86c14.668 0 26.391 1.67 31.41 4.18v59.017h-43.531v49.826h105.061v-148.607c-19.666-6.688-56.923-15.921-94.158-15.921-51.53 0-88.764 12.999-114.724 38.116-25.962 24.275-40.178 61.12-39.765 102.549 0.431 93.766 68.667 147.352 161.178 147.352 36.409 0 64.429-7.118 78.274-13.804l-13.395-51.078c-15.507 6.686-34.743 12.138-65.742 12.138-53.138 0-93.336-30.136-93.336-91.256 0.002-58.197 36.434-92.513 88.729-92.513zM172.094 262.959l12.961 47.707c11.294-5.861 37.274-16.743 63.215-16.743 33.083 0 49.808 15.903 49.808 36.413 0 26.802-26.765 38.957-54.848 38.957h-25.921v45.609h24.686c21.358 0.431 48.553 8.371 48.553 31.393 0 16.332-13.391 28.472-40.201 28.472-22.178 0-45.607-9.628-56.921-16.314l-12.982 46.039c16.332 10.472 48.98 20.51 84.161 20.51 58.195 0 90.412-30.549 90.412-67.804 0-28.883-16.314-51.49-49.824-63.217v-0.84c32.667-5.862 59.039-30.569 59.039-66.138 0-48.157-42.274-83.315-111.333-83.315-35.177-0.002-64.922 9.213-80.805 19.272zM843.295-12.96h-662.589v193.43h662.587v-193.43zM878.236 377.648c-21.786-20.51-54-29.725-91.687-29.725-8.371 0-15.903 0.43-21.765 1.255v-100.885h-63.197v278.384c19.666 3.334 47.277 5.844 86.219 5.844 39.349 0 67.391-7.53 86.254-22.608 17.98-14.214 30.119-37.666 30.119-65.294-0.002-27.628-9.2-51.068-25.943-66.971z" />
<glyph unicode="&#xe904;" glyph-name="z-file-format-variant" d="M908.040 593.72h-24.589v118.641c0 0.746-0.117 1.485-0.216 2.24-0.039 4.705-1.549 9.335-4.765 12.999l-197.432 225.532c-0.058 0.058-0.117 0.084-0.156 0.141-1.177 1.314-2.549 2.408-3.999 3.354-0.431 0.288-0.864 0.534-1.314 0.785-1.255 0.68-2.59 1.255-3.962 1.666-0.372 0.099-0.705 0.251-1.078 0.35-1.489 0.351-3.040 0.573-4.609 0.573h-485.213c-22.157 0-40.157-18.020-40.157-40.159v-326.112h-24.589c-31.681 0-57.393-25.689-57.393-57.396v-298.471c0-31.676 25.712-57.391 57.393-57.391h24.589v-204.313c0-22.136 18-40.159 40.157-40.159h662.587c22.136 0 40.159 18.020 40.159 40.159v204.313h24.589c31.705 0 57.391 25.706 57.391 57.391v298.462c-0.002 31.716-25.689 57.396-57.393 57.396zM843.294-12.971h-662.587v193.442h662.587v-193.442zM304.667 470.279v53.505h196.45v-41.097l-114.711-237.137h-68.899l114.726 223.887v0.844h-127.567zM543.020 474.986v52.745h204.725v-36.844l-131.45-190.906v-1.666h133.547v-52.765h-219.371v34.314l134.391 193.437v1.686h-121.842zM843.294 593.72h-662.587v326.114h465.136v-205.45c0-11.093 9-20.078 20.078-20.078h177.372v-100.585z" />
<glyph unicode="&#xe905;" glyph-name="aac-file-format-variant" d="M298.157 438.019c-4.867 16.275-9.749 36.598-13.832 52.847h-0.814c-4.053-16.25-8.113-36.985-12.597-52.847l-16.245-58.118h60.559l-17.070 58.118zM908.038 593.72h-24.589v118.641c0 0.746-0.117 1.485-0.216 2.24-0.039 4.711-1.537 9.338-4.763 12.999l-197.432 225.538c-0.059 0.058-0.117 0.078-0.158 0.136-1.177 1.314-2.549 2.413-3.999 3.354-0.429 0.294-0.863 0.534-1.313 0.785-1.257 0.68-2.59 1.255-3.962 1.666-0.372 0.099-0.706 0.251-1.078 0.353-1.491 0.348-3.040 0.569-4.609 0.569h-485.215c-22.157 0-40.157-18.020-40.157-40.159v-326.112h-24.583c-31.696 0-57.396-25.689-57.396-57.391v-298.465c0-31.687 25.7-57.402 57.396-57.402h24.585v-204.313c0-22.136 18-40.159 40.157-40.159h662.587c22.136 0 40.157 18.020 40.157 40.159v204.313h24.589c31.687 0 57.393 25.706 57.393 57.391v298.465c-0.002 31.702-25.708 57.393-57.394 57.393zM180.706 919.834h465.136v-205.45c0-11.093 9-20.078 20.078-20.078h177.372v-100.593h-662.587v326.121zM678.706 263.216h-66.649l-21.146 70.332h-78.471l-19.504-70.332h-64.251l83.77 273.985h81.329l84.922-273.985zM161.975 263.216l83.736 273.985h81.308l84.989-273.985h-66.701l-21.123 70.332h-78.475l-19.495-70.332h-64.24zM843.294-12.971h-662.589v193.442h662.587v-193.442zM897.058 480.299c-12.607 5.271-30.067 10.158-52.018 10.158-49.186 0-87.43-29.668-87.43-90.643 0-54.883 32.538-89.431 87.843-89.431 18.677 0 39.411 4.060 51.607 8.95l9.344-48.372c-11.363-5.706-36.991-11.805-70.313-11.805-94.716 0-143.529 58.941-143.529 136.992 0 93.504 66.696 145.548 149.636 145.548 32.099 0 56.51-6.505 67.491-12.216l-12.631-49.181zM564.883 438.019c-4.863 16.275-9.745 36.598-13.824 52.847h-0.824c-4.049-16.25-8.117-36.985-12.607-52.847l-16.236-58.118h60.568l-17.078 58.118z" />
<glyph unicode="&#xe906;" glyph-name="aif-file-symbol" d="M908.037 593.72h-24.585v118.641c0 0.745-0.12 1.485-0.217 2.241-0.039 4.706-1.539 9.338-4.764 12.999l-197.432 225.532c-0.058 0.063-0.12 0.082-0.159 0.14-1.175 1.32-2.547 2.413-3.999 3.354-0.431 0.293-0.863 0.534-1.315 0.783-1.255 0.682-2.589 1.255-3.961 1.668-0.372 0.097-0.704 0.25-1.076 0.351-1.494 0.351-3.042 0.571-4.607 0.571h-485.217c-22.157 0-40.156-18.021-40.156-40.158v-326.111h-24.584c-31.697 0-57.398-25.691-57.398-57.392v-298.465c0-31.686 25.7-57.403 57.398-57.403h24.584v-204.316c0-22.139 17.998-40.156 40.156-40.156h662.589c22.137 0 40.158 18.017 40.158 40.156v204.314h24.585c31.686 0 57.39 25.706 57.39 57.394v298.465c0.002 31.701-25.704 57.392-57.39 57.392zM160.569 227.51l99.731 326.273h96.817l101.177-326.273h-79.393l-25.166 83.746h-93.426l-23.241-83.746h-76.5zM843.295-12.971h-662.589v193.441h662.589v-193.441zM501.813 227.51v326.273h74.068v-326.273h-74.068zM830.979 418.724v-60.022h-117.158v-131.193h-74.075v326.273h199.451v-60.503h-125.375v-74.554h117.158zM843.295 593.72h-662.589v326.113h465.137v-205.45c0-11.094 8.998-20.079 20.079-20.079h177.374v-100.584zM322.74 435.665c-5.808 19.386-11.613 43.581-16.461 62.954h-0.975c-4.839-19.373-9.676-44.061-15.010-62.954l-19.363-69.223h72.133l-20.323 69.223z" />
<glyph unicode="&#xe907;" glyph-name="ai-file-format" d="M908.047 593.73h-24.589v118.643c0 0.745-0.116 1.485-0.204 2.241-0.039 4.706-1.546 9.333-4.774 12.999l-197.441 225.521c-0.058 0.058-0.12 0.082-0.159 0.14-1.175 1.315-2.547 2.409-3.999 3.354-0.431 0.288-0.863 0.529-1.315 0.783-1.255 0.682-2.589 1.255-3.961 1.668-0.372 0.097-0.704 0.25-1.076 0.347-1.494 0.355-3.042 0.575-4.607 0.575h-485.217c-22.157 0-40.156-18.021-40.156-40.158v-326.111h-24.584c-31.697 0-57.398-25.691-57.398-57.398v-298.468c0-31.677 25.7-57.394 57.398-57.394h24.584v-204.316c0-22.139 17.998-40.156 40.156-40.156h662.589c22.137 0 40.158 18.017 40.158 40.156v204.314h24.585c31.686 0 57.39 25.719 57.39 57.394v298.468c0.002 31.707-25.684 57.398-57.381 57.398zM843.295-12.96h-662.589v193.43h662.589v-193.43zM296.599 245.431l93.725 306.716h90.994l95.112-306.716h-74.606l-23.685 78.735h-87.816l-21.842-78.735h-71.883zM617.372 245.431v306.716h69.647v-306.716h-69.647zM843.295 593.73h-662.589v326.113h465.137v-205.45c0-11.099 8.998-20.079 20.079-20.079h177.374v-100.584zM449.025 441.115c-5.452 18.198-10.913 40.957-15.471 59.159h-0.911c-4.54-18.202-9.099-41.413-14.099-59.159l-18.2-65.079h67.804l-19.123 65.079z" />
<glyph unicode="&#xe908;" glyph-name="apk-file-format-symbol" d="M253.079 435c-5.118 17.068-10.24 38.402-14.505 55.465h-0.842c-4.276-17.063-8.556-38.839-13.231-55.465l-17.068-61.029h63.559l-17.913 61.029zM502.295 492.172c-13.231 0-22.187-1.275-26.898-2.56v-84.906c5.553-1.275 12.384-1.707 21.774-1.707 34.574 0 55.889 17.491 55.889 46.952 0 26.442-18.353 42.22-50.765 42.22zM908.040 593.72h-24.589v118.652c0 0.746-0.117 1.485-0.216 2.24-0.039 4.705-1.539 9.338-4.765 13.001l-197.432 225.519c-0.058 0.063-0.117 0.084-0.156 0.141-1.177 1.318-2.549 2.413-3.999 3.354-0.431 0.294-0.864 0.534-1.314 0.785-1.255 0.68-2.59 1.255-3.962 1.666-0.372 0.099-0.705 0.251-1.078 0.353-1.489 0.348-3.040 0.569-4.609 0.569h-485.213c-22.157 0-40.157-18.020-40.157-40.159v-326.112h-24.583c-31.696 0-57.398-25.689-57.398-57.391v-298.465c0-31.687 25.7-57.402 57.398-57.402h24.583v-204.313c0-22.136 18-40.159 40.157-40.159h662.587c22.136 0 40.159 18.020 40.159 40.159v204.313h24.589c31.687 0 57.391 25.706 57.391 57.391v298.465c-0.002 31.713-25.706 57.393-57.393 57.393zM180.707 919.841h465.136v-205.45c0-11.093 9-20.078 20.078-20.078h177.372v-100.593h-662.587v326.121zM617.491 451.637c0-28.147-9.392-52.050-26.44-68.265-22.205-20.902-55.048-30.304-93.465-30.304-8.52 0-16.191 0.441-22.177 1.283v-102.824h-64.422v283.747c20.060 3.402 48.231 5.96 87.888 5.96 40.127 0 68.696-7.671 87.912-23.020 18.342-14.514 30.705-38.411 30.705-66.578zM177.575 251.53h-67.411l87.882 287.588h85.333l89.172-287.588h-69.986l-22.177 73.814h-82.344l-20.469-73.814zM843.294-12.96h-662.587v193.431h662.587v-193.431zM818.49 251.53l-70.412 124.157-24.745-30.294v-93.863h-64.431v287.588h64.431v-127.148h1.275c6.392 11.088 13.224 21.324 19.628 31.577l65.294 95.579h79.773l-95.164-122.46 100.275-165.117-75.922-0.019z" />
<glyph unicode="&#xe909;" glyph-name="app-file-symbol" d="M269.764 433.511c-5.47 18.206-10.922 40.96-15.47 59.187h-0.922c-4.549-18.216-9.098-41.412-14.118-59.187l-18.203-65.048h67.805l-19.093 65.048zM908.040 593.729h-24.589v118.643c0 0.746-0.117 1.485-0.216 2.24-0.039 4.705-1.539 9.335-4.765 13.001l-197.432 225.519c-0.058 0.058-0.117 0.084-0.156 0.141-1.177 1.314-2.549 2.408-3.999 3.354-0.431 0.288-0.864 0.53-1.314 0.785-1.255 0.68-2.59 1.255-3.962 1.666-0.372 0.099-0.705 0.251-1.078 0.35-1.489 0.351-3.040 0.573-4.609 0.573h-485.213c-22.157 0-40.157-18.020-40.157-40.159v-326.112h-24.583c-31.687 0-57.398-25.689-57.398-57.396v-298.471c0-31.676 25.712-57.391 57.398-57.391h24.583v-204.313c0-22.136 18-40.159 40.157-40.159h662.587c22.136 0 40.159 18.020 40.159 40.159v204.313h24.589c31.705 0 57.391 25.715 57.391 57.391v298.471c-0.002 31.707-25.689 57.396-57.393 57.396zM180.707 919.841h465.136v-205.45c0-11.099 9-20.078 20.078-20.078h177.372v-100.593h-662.587v326.121zM658.354 451.275c0-30.040-10.021-55.53-28.218-72.825-23.646-22.293-58.714-32.313-99.646-32.313-9.102 0-17.323 0.47-23.653 1.372v-109.665h-68.726v302.607c21.393 3.642 51.412 6.373 93.731 6.373 42.786 0 73.255-8.191 93.766-24.564 19.549-15.47 32.746-40.969 32.746-70.985zM117.31 237.845l93.744 306.705h91.015l95.103-306.705h-74.653l-23.642 78.726h-87.824l-21.843-78.726h-71.899zM843.294-12.96h-662.587v193.431h662.587v-193.431zM894.509 378.45c-23.666-22.293-58.716-32.313-99.648-32.313-9.098 0-17.323 0.47-23.665 1.372v-109.665h-68.726v302.607c21.391 3.642 51.43 6.373 93.744 6.373 42.765 0 73.255-8.191 93.746-24.564 19.55-15.47 32.765-40.96 32.765-70.975 0-30.049-10.019-55.539-28.216-72.834zM535.491 494.49c-14.094 0-23.663-1.372-28.653-2.722v-90.563c5.908-1.353 13.187-1.805 23.2-1.805 36.862 0 59.607 18.638 59.607 50.055 0.002 28.212-19.565 45.035-54.154 45.035zM799.862 494.49c-14.098 0-23.665-1.372-28.666-2.722v-90.563c5.931-1.353 13.187-1.805 23.204-1.805 36.874 0 59.618 18.638 59.618 50.055 0.002 28.212-19.567 45.035-54.156 45.035z" />
<glyph unicode="&#xe90a;" glyph-name="asf-file-format-symbol" d="M908.038 593.729h-24.589v118.643c0 0.746-0.117 1.485-0.216 2.24-0.039 4.711-1.537 9.338-4.763 13.001l-197.432 225.519c-0.059 0.063-0.117 0.084-0.158 0.141-1.177 1.314-2.549 2.413-3.999 3.354-0.429 0.294-0.863 0.534-1.313 0.785-1.257 0.68-2.59 1.255-3.962 1.666-0.372 0.099-0.706 0.251-1.078 0.353-1.491 0.348-3.040 0.569-4.609 0.569h-485.215c-22.157 0-40.157-18.020-40.157-40.159v-326.112h-24.583c-31.696 0-57.396-25.689-57.396-57.391v-298.465c0-31.687 25.7-57.402 57.396-57.402h24.585v-204.313c0-22.136 18-40.159 40.157-40.159h662.587c22.136 0 40.157 18.020 40.157 40.159v204.313h24.589c31.687 0 57.393 25.706 57.393 57.391v298.462c-0.002 31.716-25.708 57.406-57.394 57.406zM168.722 262.118l83.647 273.706h81.215l84.863-273.706h-66.588l-21.123 70.254h-78.378l-19.485-70.254h-64.15zM843.294-12.96h-662.589v193.431h662.587v-193.431zM523.196 377.041c-45.466 15.841-75.112 41.018-75.112 80.829 0 46.686 38.98 82.437 103.543 82.437 30.882 0 53.607-6.509 69.841-13.804l-13.824-49.965c-10.961 5.269-30.43 12.999-57.255 12.999-26.782 0-39.783-12.181-39.783-26.392 0-17.474 15.432-25.182 50.765-38.593 48.333-17.862 71.078-43.038 71.078-81.608 0-45.901-35.353-84.883-110.47-84.883-31.268 0-62.122 8.119-77.573 16.648l12.588 51.176c16.667-8.53 42.256-17.059 68.633-17.059 28.431 0 43.451 11.783 43.451 29.645 0.002 17.059-12.98 26.807-45.881 38.571zM834.625 422.511v-50.334h-98.273v-110.057h-62.118v273.704h167.294v-50.77h-105.175v-62.544h98.273zM843.294 593.729h-662.589v326.112h465.136v-205.45c0-11.093 9-20.078 20.078-20.078h177.372v-100.583zM304.766 436.725c-4.882 16.254-9.751 36.554-13.804 52.808h-0.824c-4.058-16.254-8.122-36.965-12.612-52.808l-16.211-58.058h60.484l-17.033 58.058z" />
<glyph unicode="&#xe90b;" glyph-name="asp-file-format-symbol" d="M245.118 444.333c-5.391 17.996-10.794 40.452-15.278 58.423h-0.907c-4.484-17.97-8.985-40.873-13.921-58.423l-17.991-64.255h66.961l-18.864 64.255zM750.127 504.563c-13.921 0-23.362-1.339-28.305-2.714v-89.395c5.845-1.372 13.019-1.805 22.921-1.805 36.392 0 58.863 18.411 58.863 49.411-0.007 27.877-19.333 44.503-53.479 44.503zM908.040 593.72h-24.589v118.641c0 0.746-0.117 1.485-0.216 2.24-0.039 4.705-1.549 9.335-4.765 12.999l-197.441 225.532c-0.048 0.058-0.11 0.084-0.147 0.141-1.177 1.314-2.549 2.408-3.999 3.354-0.431 0.288-0.864 0.534-1.314 0.785-1.255 0.68-2.59 1.255-3.962 1.666-0.372 0.099-0.705 0.251-1.078 0.35-1.489 0.351-3.040 0.573-4.609 0.573h-485.213c-22.157 0-40.157-18.020-40.157-40.159v-326.112h-24.589c-31.69 0-57.393-25.689-57.393-57.396v-298.471c0-31.676 25.7-57.391 57.393-57.391h24.589v-204.313c0-22.136 18-40.159 40.157-40.159h662.587c22.136 0 40.159 18.020 40.159 40.159v204.313h24.589c31.687 0 57.391 25.706 57.391 57.391v298.462c-0.002 31.716-25.706 57.396-57.393 57.396zM180.707 919.834h465.136v-205.45c0-11.093 9-20.078 20.078-20.078h177.372v-100.593h-662.587v326.121zM486.843 378.294c-50.328 17.53-83.138 45.372-83.138 89.403 0 51.681 43.137 91.24 114.588 91.24 34.137 0 59.313-7.211 77.294-15.286l-15.274-55.266c-12.138 5.834-33.708 14.378-63.353 14.378-29.668 0-44.044-13.484-44.044-29.186 0-19.333 17.080-27.874 56.156-42.707 53.496-19.792 78.653-47.636 78.653-90.312 0-50.795-39.097-93.932-122.25-93.932-34.585 0-68.741 9-85.815 18.431l13.932 56.617c18.411-9.441 46.725-18.863 75.935-18.863 31.447 0 48.078 13.040 48.078 32.811 0 18.848-14.373 29.653-50.765 42.67zM165.589 251.117h-70.999l92.563 302.886h89.877l93.917-302.886h-73.697l-23.362 77.726h-86.735l-21.564-77.726zM843.294-12.971h-662.587v193.442h662.587v-193.442zM843.588 389.961c-23.362-22.001-57.961-31.891-98.412-31.891-8.98 0-17.080 0.441-23.354 1.361v-108.314h-67.861v298.83c21.099 3.607 50.767 6.284 92.569 6.284 42.256 0 72.353-8.089 92.578-24.239 19.325-15.28 32.336-40.451 32.336-70.094-0.002-29.683-9.874-54.849-27.855-71.936z" />
<glyph unicode="&#xe90c;" glyph-name="aspx-file-format-symbol" d="M227.693 423.254c-4.118 13.765-8.254 30.943-11.705 44.726h-0.641c-3.456-13.783-6.907-31.313-10.671-44.726l-13.785-49.196h51.271l-14.468 49.196zM908.040 593.729h-24.589v118.643c0 0.746-0.117 1.485-0.216 2.24-0.039 4.705-1.539 9.335-4.765 13.001l-197.432 225.519c-0.058 0.058-0.117 0.084-0.156 0.141-1.177 1.314-2.549 2.408-3.999 3.354-0.431 0.288-0.864 0.53-1.314 0.785-1.255 0.68-2.59 1.255-3.962 1.666-0.372 0.099-0.705 0.251-1.078 0.35-1.489 0.351-3.040 0.573-4.609 0.573h-485.213c-22.157 0-40.157-18.020-40.157-40.159v-326.112h-24.583c-31.687 0-57.398-25.689-57.398-57.396v-298.471c0-31.676 25.712-57.391 57.398-57.391h24.583v-204.313c0-22.136 18-40.159 40.157-40.159h662.587c22.136 0 40.159 18.020 40.159 40.159v204.313h24.589c31.705 0 57.391 25.715 57.391 57.391v298.471c-0.002 31.707-25.689 57.396-57.393 57.396zM180.707 919.841h465.136v-205.45c0-11.099 9-20.078 20.078-20.078h177.372v-100.593h-662.587v326.121zM707.472 436.668c0-22.707-7.55-41.96-21.335-55.039-17.881-16.862-44.392-24.432-75.372-24.432-6.862 0-13.058 0.353-17.883 1.021v-82.922h-51.96v228.823c16.197 2.764 38.904 4.808 70.882 4.808 32.363 0 55.431-6.191 70.893-18.593 14.813-11.686 24.775-30.98 24.775-53.665zM412.882 372.666c-38.549 13.413-63.628 34.745-63.628 68.471 0 39.54 33.020 69.819 87.72 69.819 26.152 0 45.431-5.49 59.181-11.647l-11.725-42.352c-9.275 4.466-25.799 11.025-48.486 11.025-22.731 0-33.726-10.333-33.726-22.382 0-14.784 13.083-21.333 43.020-32.666 40.941-15.137 60.196-36.489 60.196-69.176 0-38.902-29.917-71.903-93.569-71.903-26.509 0-52.661 6.892-65.725 14.109l10.671 43.334c14.098-7.217 35.769-14.412 58.157-14.412 24.053 0 36.803 9.941 36.803 25.078-0.006 14.469-11.006 22.724-38.889 32.704zM166.785 275.295h-54.351l70.906 231.926h68.789l71.922-231.926h-56.45l-17.883 59.51h-66.368l-16.565-59.51zM843.294-12.96h-662.587v193.431h662.587v-193.431zM853.412 275.295l-20.98 41.999c-8.608 16.139-14.098 28.227-20.629 41.629h-0.686c-4.823-13.413-10.666-25.49-17.901-41.629l-19.273-41.999h-59.863l67.119 117.332-64.718 114.594h60.256l20.283-42.358c6.882-14.113 12.030-25.449 17.548-38.51h0.697c5.509 14.784 9.959 25.098 15.802 38.51l19.599 42.358h59.873l-65.383-113.201 68.815-118.725h-60.559zM614.568 469.353c-10.666 0-17.881-1.024-21.687-2.058v-68.469c4.492-1.021 10-1.372 17.548-1.372 27.883 0 45.080 14.118 45.080 37.842 0.002 21.326-14.802 34.057-40.941 34.057z" />
<glyph unicode="&#xe90d;" glyph-name="asx-file-format-symbol" d="M908.049 593.716h-24.589v118.647c0 0.74-0.128 1.485-0.206 2.235-0.039 4.711-1.549 9.338-4.774 13.004l-197.441 225.531c-0.059 0.058-0.117 0.078-0.158 0.141-1.177 1.314-2.549 2.408-3.999 3.354-0.429 0.288-0.863 0.53-1.313 0.779-1.257 0.686-2.59 1.255-3.962 1.666-0.372 0.104-0.706 0.257-1.078 0.353-1.491 0.353-3.040 0.574-4.609 0.574h-485.215c-22.157 0-40.157-18.020-40.157-40.159v-326.116h-24.587c-31.69 0-57.393-25.685-57.393-57.393v-298.471c0-31.676 25.7-57.391 57.393-57.391h24.589v-204.313c0-22.136 18-40.159 40.157-40.159h662.587c22.136 0 40.157 18.020 40.157 40.159v204.313h24.589c31.687 0 57.393 25.706 57.393 57.391v298.462c-0.002 31.705-25.689 57.393-57.383 57.393zM180.706 919.834h465.136v-205.456c0-11.093 9-20.078 20.078-20.078h177.372v-100.593h-662.587v326.127zM485.858 378.716c-47.647 16.609-78.705 42.981-78.705 84.697 0 48.917 40.837 86.372 108.5 86.372 32.328 0 56.16-6.804 73.169-14.466l-14.46-52.332c-11.5 5.535-31.912 13.622-59.995 13.622-28.078 0-41.702-12.78-41.702-27.686 0-18.296 16.161-26.373 53.185-40.411 50.627-18.725 74.461-45.098 74.461-85.51 0-48.097-37.019-88.921-115.73-88.921-32.759 0-65.093 8.509-81.269 17.451l13.19 53.607c17.451-8.942 44.245-17.881 71.912-17.881 29.781 0 45.524 12.343 45.524 31.088 0.002 17.849-13.605 28.035-48.080 40.369zM114.465 258.334l87.642 286.773h85.093l88.927-286.773h-69.78l-22.118 73.587h-82.122l-20.417-73.587h-67.225zM843.294-12.971h-662.589v193.442h662.587v-193.442zM795.145 258.334l-25.949 51.901c-10.649 20-17.451 34.901-25.529 51.49h-0.853c-5.951-16.589-13.187-31.49-22.116-51.49l-23.823-51.901h-74.039l82.97 145.068-79.988 141.705h74.461l25.098-52.353c8.509-17.451 14.903-31.495 21.705-47.647h0.844c6.802 18.29 12.333 31.058 19.576 47.647l24.256 52.353h74.028l-80.842-139.971 85.090-146.803h-74.889zM257.005 441.284c-5.113 16.996-10.212 38.279-14.466 55.314h-0.853c-4.259-17.035-8.515-38.74-13.19-55.314l-17.020-60.873h63.398l-17.868 60.873z" />
<glyph unicode="&#xe90e;" glyph-name="avi-video-file-format-symbol" d="M328.265 433.569c-5.334 17.784-10.671 40.040-15.142 57.828h-0.891c-4.436-17.788-8.883-40.475-13.785-57.828l-17.779-63.628h66.279l-18.682 63.628zM908.038 593.72h-24.589v118.641c0 0.74-0.117 1.485-0.216 2.235-0.039 4.711-1.537 9.338-4.763 13.004l-197.432 225.532c-0.059 0.058-0.117 0.078-0.158 0.141-1.177 1.314-2.549 2.408-3.999 3.354-0.429 0.288-0.863 0.53-1.313 0.779-1.257 0.686-2.59 1.255-3.962 1.666-0.372 0.104-0.706 0.257-1.078 0.353-1.491 0.353-3.040 0.574-4.609 0.574h-485.215c-22.157 0-40.157-18.020-40.157-40.159v-326.112h-24.583c-31.696 0-57.396-25.689-57.396-57.396v-298.471c0-31.685 25.7-57.391 57.396-57.391h24.585v-204.313c0-22.136 18-40.159 40.157-40.159h662.587c22.136 0 40.157 18.020 40.157 40.159v204.313h24.589c31.687 0 57.393 25.706 57.393 57.391v298.462c-0.002 31.705-25.708 57.396-57.394 57.396zM179.231 242.257l91.628 299.852h88.97l92.991-299.852h-72.955l-23.148 76.969h-85.869l-21.343-76.969h-70.274zM441.275 542.109h74.297l36.476-126.795c10.246-35.589 19.578-69.841 26.695-107.215h1.353c7.559 36.039 16.903 71.626 27.139 105.882l38.253 128.128h72.059l-100.97-299.852h-79.206l-96.097 299.852zM843.294-12.971h-662.589v193.442h662.587v-193.442zM749.597 242.257v299.852h68.079v-299.852h-68.079zM843.294 593.72h-662.589v326.114h465.136v-205.456c0-11.093 9-20.078 20.078-20.078h177.372v-100.58z" />
<glyph unicode="&#xe90f;" glyph-name="bak-file-format-symbol" d="M295.123 467.994c0 28.452-25.539 39.785-57.354 39.785h-21.765v-79.562c6.274-0.824 13.813-0.824 24.706-0.824 28.883 0 54.412 10.902 54.412 40.601zM908.038 593.716h-24.589v118.658c0 0.74-0.117 1.485-0.216 2.237-0.039 4.709-1.537 9.336-4.763 13.004l-197.443 225.518c-0.058 0.058-0.115 0.078-0.165 0.138-1.168 1.318-2.549 2.411-3.99 3.352-0.431 0.294-0.863 0.535-1.314 0.785-1.255 0.686-2.588 1.255-3.971 1.666-0.372 0.104-0.695 0.251-1.067 0.353-1.482 0.353-3.051 0.574-4.609 0.574h-485.206c-22.157 0-40.157-18.024-40.157-40.159v-326.116h-24.587c-31.69 0-57.393-25.691-57.393-57.393v-298.471c0-31.685 25.7-57.391 57.393-57.391h24.589v-204.313c0-22.136 18-40.159 40.157-40.159h662.587c22.136 0 40.157 18.020 40.157 40.159v204.301h24.589c31.687 0 57.393 25.717 57.393 57.402v298.462c-0.002 31.711-25.708 57.393-57.394 57.393zM180.706 919.841h465.136v-205.456c0-11.093 9-20.078 20.078-20.078h177.372v-100.593h-662.587v326.127zM640.979 261.294h-68.666l-21.765 72.433h-80.793l-20.099-72.433h-66.147l86.246 282.167h83.725l87.499-282.167zM152.791 262.551v277.145c16.745 3.354 50.657 5.864 82.47 5.864 38.932 0 62.793-3.765 83.303-15.901 19.677-10.491 33.912-29.746 33.912-55.275 0-25.117-14.657-48.579-46.47-60.284v-0.844c32.235-8.803 56.099-33.077 56.099-69.51 0-25.527-11.716-45.647-29.305-59.862-20.51-16.332-54.844-25.529-110.941-25.529-31.393 0.019-54.834 2.116-69.068 4.196zM843.294-12.96h-662.589v193.42h662.587v-193.42zM835.263 261.294l-69.088 121.824-24.274-29.707v-92.119h-63.213v282.168h63.215v-124.774h1.255c6.274 10.883 12.98 20.952 19.255 30.99l64.058 93.785h78.283l-93.352-120.167 98.382-162.018-74.521 0.019zM523.756 441.314c-5.031 16.745-10.048 37.686-14.235 54.431h-0.833c-4.187-16.745-8.373-38.117-12.98-54.431l-16.745-59.862h62.382l-17.589 59.862zM295.123 346.276c0 28.469-25.539 39.783-57.354 39.783h-21.765v-79.549c6.274-0.822 13.813-0.822 24.706-0.822 28.883 0 54.412 10.881 54.412 40.588z" />
<glyph unicode="&#xe910;" glyph-name="bat-file-format" d="M277.133 471.161c0 23.2-17.748 35.485-49.15 35.485-15.019 0-23.644-0.902-29.566-1.804v-71.453h22.77c36.383 0.002 55.946 15.003 55.946 37.773zM284.413 340.57c0 30.939-27.749 43.234-62.332 43.234h-23.663v-86.462c6.824-0.908 15.019-0.908 26.845-0.908 31.398 0 59.149 11.82 59.149 44.136zM532.86 443.842c-5.47 18.211-10.92 40.981-15.488 59.181h-0.902c-4.55-18.2-9.099-41.413-14.099-59.181l-18.209-65.059h67.819l-19.121 65.059zM908.037 593.73h-24.585v118.643c0 0.745-0.12 1.485-0.217 2.241-0.039 4.706-1.539 9.333-4.764 12.999l-197.432 225.521c-0.058 0.058-0.12 0.082-0.159 0.14-1.175 1.315-2.547 2.409-3.999 3.354-0.431 0.288-0.863 0.529-1.315 0.783-1.255 0.682-2.589 1.255-3.961 1.668-0.372 0.097-0.704 0.25-1.076 0.347-1.494 0.355-3.042 0.575-4.607 0.575h-485.217c-22.157 0-40.156-18.021-40.156-40.158v-326.111h-24.584c-31.688 0-57.398-25.691-57.398-57.398v-298.468c0-31.677 25.71-57.394 57.398-57.394h24.584v-204.316c0-22.139 17.998-40.156 40.156-40.156h662.589c22.137 0 40.158 18.017 40.158 40.156v204.314h24.585c31.707 0 57.39 25.719 57.39 57.394v298.468c0.002 31.707-25.684 57.398-57.39 57.398zM180.705 919.842h465.137v-205.45c0-11.099 8.998-20.079 20.079-20.079h177.374v-100.592h-662.589v326.12zM565.157 554.887l95.096-306.71h-74.608l-23.685 78.726h-87.799l-21.862-78.726h-71.883l93.745 306.71h90.996zM129.686 249.547v301.257c18.232 3.621 55.056 6.352 89.653 6.352 42.315 0 68.275-4.098 90.563-17.279 21.392-11.392 36.863-32.314 36.863-60.074 0-27.295-15.921-52.786-50.506-65.527v-0.902c35.035-9.57 60.957-35.942 60.957-75.528 0-27.766-12.75-49.598-31.824-65.070-22.32-17.755-59.622-27.775-120.615-27.775-34.131 0-59.62 2.273-75.091 4.548zM843.295-12.96h-662.589v193.43h662.589v-193.43zM875.959 496.647h-83.746v-248.47h-69.608v248.47h-82.351v58.24h235.705v-58.24z" />
<glyph unicode="&#xe911;" glyph-name="bin-file-format" d="M349.073 461.711c0 21.371-16.314 32.665-45.215 32.665-13.805 0-21.767-0.844-27.196-1.666v-65.731h20.921c33.5 0 51.49 13.807 51.49 34.732zM908.039 593.715h-24.589v118.657c0 0.74-0.116 1.485-0.215 2.234-0.039 4.712-1.541 9.338-4.766 13.004l-197.439 225.523c-0.060 0.058-0.118 0.078-0.168 0.136-1.165 1.32-2.547 2.413-3.993 3.352-0.43 0.293-0.859 0.534-1.309 0.786-1.257 0.684-2.59 1.253-3.972 1.666-0.372 0.103-0.697 0.25-1.066 0.351-1.483 0.355-3.052 0.575-4.609 0.575h-485.206c-22.156 0-40.156-18.024-40.156-40.158v-326.117h-24.589c-31.69 0-57.39-25.691-57.39-57.392v-298.468c0-31.69 25.7-57.394 57.39-57.394h24.589v-204.316c0-22.139 18-40.156 40.156-40.156h662.587c22.137 0 40.156 18.017 40.156 40.156v204.305h24.589c31.686 0 57.39 25.715 57.39 57.403v298.459c0.002 31.712-25.702 57.392-57.388 57.392zM843.295-12.96h-662.589v193.42h662.587v-193.42zM422.77 339.036c0-25.527-11.736-45.626-29.303-59.861-20.521-16.314-54.845-25.53-110.942-25.53-31.4 0-54.843 2.099-69.093 4.197v277.142c16.76 3.354 50.661 5.864 82.485 5.864 38.942 0 62.784-3.765 83.303-15.901 19.677-10.49 33.923-29.727 33.923-55.255 0-25.14-14.657-48.571-46.47-60.319v-0.805c32.222-8.823 56.096-33.098 56.096-69.532zM466.343 256.587v282.164h64.050v-282.14l-64.050-0.024zM760.665 456.28v82.47h58.608v-282.14h-66.979l-60.272 108.839c-16.747 30.14-35.177 66.573-48.98 99.623l-1.257-0.392c1.668-37.27 2.508-77.054 2.508-123.091v-84.979h-58.617v282.14h74.539l58.61-103.395c16.726-29.746 33.47-64.904 46.037-96.726h1.255c-4.197 37.272-5.452 75.37-5.452 117.651zM843.295 593.715h-662.589v326.128h465.139v-205.455c0-11.092 8.996-20.077 20.079-20.077h177.372v-100.596zM298.446 381.334h-21.775v-79.531c6.273-0.863 13.804-0.863 24.686-0.863 28.901 0 54.439 10.903 54.439 40.628-0.009 28.47-25.547 39.765-57.351 39.765z" />
<glyph unicode="&#xe912;" glyph-name="bmp-file-format-symbol" d="M287.024 344.45c0 26.050-23.334 36.372-52.455 36.372h-19.898v-72.766c5.739-0.753 12.648-0.753 22.588-0.753 26.422 0.002 49.765 9.952 49.765 37.147zM908.038 593.729h-24.589v118.643c0 0.746-0.117 1.485-0.216 2.24-0.039 4.711-1.537 9.338-4.763 13.001l-197.432 225.519c-0.059 0.063-0.117 0.084-0.158 0.141-1.177 1.314-2.549 2.413-3.999 3.354-0.429 0.294-0.863 0.534-1.313 0.785-1.257 0.68-2.59 1.255-3.962 1.666-0.372 0.099-0.706 0.251-1.078 0.353-1.491 0.348-3.040 0.569-4.609 0.569h-485.215c-22.157 0-40.157-18.020-40.157-40.159v-326.112h-24.583c-31.696 0-57.396-25.689-57.396-57.391v-298.465c0-31.687 25.7-57.402 57.396-57.402h24.585v-204.313c0-22.136 18-40.159 40.157-40.159h662.587c22.136 0 40.157 18.020 40.157 40.159v204.313h24.589c31.687 0 57.393 25.706 57.393 57.391v298.462c-0.002 31.716-25.708 57.406-57.394 57.406zM180.706 919.841h465.136v-205.45c0-11.093 9-20.078 20.078-20.078h177.372v-100.593h-662.587v326.121zM667.333 266.686h-57.069l-3.843 98.834c-1.136 31.021-2.303 68.549-2.303 106.073h-1.136c-8.059-32.936-18.775-69.679-28.734-99.966l-31.404-100.695h-45.548l-27.587 99.94c-8.412 30.255-17.236 67.021-23.349 100.721h-0.764c-1.524-34.847-2.711-74.68-4.609-106.849l-4.588-98.059h-54l16.47 258.138h77.744l25.278-86.177c8.039-29.861 16.083-62.018 21.824-92.294h1.156c7.284 29.881 16.089 63.959 24.501 92.684l27.587 85.785h76.196l14.178-258.136zM156.823 267.862v253.514c15.328 3.084 46.353 5.373 75.456 5.373 35.608 0 57.456-3.456 76.216-14.549 18-9.587 31.025-27.197 31.025-50.568 0-22.975-13.393-44.418-42.51-55.132v-0.764c29.495-8.059 51.313-30.255 51.313-63.569 0-23.371-10.701-41.735-26.784-54.784-18.784-14.931-50.196-23.345-101.509-23.345-28.731 0-50.161 1.913-63.206 3.824zM843.294-12.96h-662.589v193.431h662.587v-193.431zM873.743 385.038c-19.922-18.755-49.411-27.195-83.881-27.195-7.647 0-14.549 0.392-19.892 1.136v-92.296h-57.852v254.693c18 3.084 43.284 5.373 78.901 5.373 35.981 0 61.646-6.907 78.882-20.69 16.47-13.019 27.589-34.475 27.589-59.746 0-25.273-8.411-46.705-23.746-61.274zM794.078 482.716c-11.874 0-19.902-1.153-24.118-2.309v-76.19c4.981-1.158 11.099-1.53 19.51-1.53 31.038 0 50.196 15.687 50.196 42.118 0 23.754-16.47 37.911-45.587 37.911zM280.921 454.367c0 19.524-14.942 29.887-41.373 29.887-12.633 0-19.922-0.764-24.888-1.528v-60.139h19.132c30.664 0.002 47.128 12.61 47.128 31.78z" />
<glyph unicode="&#xe913;" glyph-name="cab-file-format-symbol" d="M837.734 461.874c0 22.69-17.362 34.715-48.039 34.715-14.667 0-23.146-0.892-28.913-1.788v-69.828h22.226c35.609 0 54.727 14.674 54.727 36.901zM783.911 376.472h-23.127v-84.53c6.657-0.902 14.678-0.902 26.236-0.902 30.707 0 57.831 11.588 57.831 43.167 0 30.244-27.124 42.265-60.94 42.265zM908.038 593.72h-24.589v118.641c0 0.74-0.117 1.485-0.216 2.235-0.039 4.711-1.537 9.338-4.763 13.004l-197.432 225.532c-0.059 0.058-0.117 0.078-0.158 0.141-1.177 1.314-2.549 2.408-3.999 3.354-0.429 0.288-0.863 0.53-1.313 0.779-1.257 0.686-2.59 1.255-3.962 1.666-0.372 0.104-0.706 0.257-1.078 0.353-1.491 0.353-3.040 0.574-4.609 0.574h-485.215c-22.157 0-40.157-18.020-40.157-40.159v-326.112h-24.583c-31.696 0-57.396-25.689-57.396-57.396v-298.471c0-31.685 25.7-57.391 57.396-57.391h24.585v-204.313c0-22.136 18-40.159 40.157-40.159h662.587c22.136 0 40.157 18.020 40.157 40.159v204.313h24.589c31.687 0 57.393 25.706 57.393 57.391v298.462c-0.002 31.705-25.708 57.396-57.394 57.396zM180.706 919.834h465.136v-205.456c0-11.093 9-20.078 20.078-20.078h177.372v-100.593h-662.587v326.127zM653.548 243.902h-72.991l-23.125 76.952h-85.859l-21.343-76.952h-70.284l91.626 299.819h88.966l93.009-299.819zM118.766 389.353c0 102.329 72.976 159.279 163.739 159.279 35.119 0 61.819-7.117 73.838-13.352l-13.783-53.829c-13.804 5.789-32.917 11.121-56.941 11.121-53.834 0-95.666-32.466-95.666-99.2 0-60.059 35.613-97.864 96.097-97.864 20.471 0 43.157 4.432 56.51 9.766l10.21-52.933c-12.45-6.226-40.48-12.893-76.952-12.893-103.657 0.022-157.052 64.511-157.052 149.904zM843.294-12.971h-662.589v193.442h662.587v-193.442zM884.899 267.922c-21.804-17.364-58.302-27.137-117.901-27.137-33.352 0-58.276 2.223-73.401 4.441v294.518c17.775 3.555 53.823 6.226 87.648 6.226 41.363 0 66.716-4.005 88.501-16.925 20.922-11.103 36.039-31.573 36.039-58.705 0-26.691-15.568-51.613-49.372-64.063v-0.892c34.256-9.342 59.607-35.146 59.607-73.833 0.019-27.16-12.432-48.493-31.12-63.63zM528.98 435.197c-5.364 17.794-10.697 40.019-15.144 57.809h-0.891c-4.441-17.79-8.887-40.48-13.783-57.809l-17.779-63.628h66.283l-18.686 63.628z" />
<glyph unicode="&#xe914;" glyph-name="cad-file-format" d="M508.269 424.314c-5.143 17.137-10.285 38.551-14.579 55.689h-0.842c-4.281-17.137-8.556-38.985-13.275-55.689l-17.128-61.284h63.828l-18.004 61.284zM908.039 593.72h-24.589v118.641c0 0.745-0.116 1.485-0.215 2.241-0.039 4.71-1.541 9.338-4.766 12.999l-197.428 225.536c-0.062 0.058-0.12 0.078-0.159 0.136-1.177 1.315-2.547 2.413-4.002 3.354-0.428 0.293-0.861 0.534-1.311 0.783-1.255 0.682-2.59 1.255-3.961 1.668-0.374 0.097-0.708 0.25-1.078 0.351-1.492 0.351-3.040 0.571-4.607 0.571h-485.217c-22.156 0-40.156-18.021-40.156-40.158v-326.111h-24.585c-31.695 0-57.396-25.691-57.396-57.392v-298.465c0-31.686 25.7-57.403 57.396-57.403h24.585v-204.316c0-22.139 18-40.156 40.156-40.156h662.587c22.137 0 40.156 18.017 40.156 40.156v204.314h24.589c31.686 0 57.39 25.706 57.39 57.394v298.465c0.002 31.701-25.702 57.392-57.388 57.392zM180.705 919.833h465.139v-205.45c0-11.094 8.996-20.079 20.079-20.079h177.372v-100.592h-662.589v326.12zM628.262 240.047h-70.273l-22.303 74.167h-82.695l-20.54-74.167h-67.716l88.256 288.83h85.716l89.554-288.83zM113.161 380.167c0 98.564 70.266 153.406 157.698 153.406 33.841 0 59.583-6.864 71.141-12.838l-13.275-51.862c-13.305 5.592-31.714 10.701-54.843 10.701-51.873 0-92.173-31.251-92.173-95.555 0-57.825 34.304-94.255 92.554-94.255 19.746 0 41.594 4.273 54.462 9.413l9.839-51.003c-11.985-6.001-38.981-12.403-74.126-12.403-99.864 0.002-151.277 62.132-151.277 144.395zM843.295-12.971h-662.589v193.441h662.587v-193.441zM874.254 274.344c-30.431-25.304-76.714-37.295-133.257-37.295-33.839 0-57.842 2.157-74.133 4.294v283.656c23.999 3.868 55.272 6.004 88.273 6.004 54.843 0 90.393-9.839 118.243-30.838 30.011-22.318 48.864-57.872 48.864-108.873 0-55.254-20.137-93.389-47.99-116.949zM761.99 480.867c-14.56 0-24.008-1.292-29.566-2.568v-188.957c5.577-1.294 14.579-1.294 22.714-1.294 59.146-0.43 97.686 32.127 97.686 101.109 0.433 60.009-34.685 91.71-90.834 91.71z" />
<glyph unicode="&#xe915;" glyph-name="cdr-file-format-extension" d="M476.735 496.038c-14.435 0-23.782-1.283-29.301-2.559v-187.244c5.528-1.285 14.455-1.285 22.524-1.285 58.578-0.413 96.799 31.873 96.799 100.226 0.418 59.441-34.383 90.862-90.021 90.862zM908.037 593.72h-24.585v118.652c0 0.745-0.12 1.485-0.217 2.241-0.039 4.706-1.539 9.338-4.764 12.999l-197.432 225.521c-0.058 0.063-0.12 0.082-0.159 0.14-1.175 1.32-2.547 2.413-3.999 3.354-0.431 0.293-0.863 0.534-1.315 0.783-1.255 0.682-2.589 1.255-3.961 1.668-0.372 0.097-0.704 0.25-1.076 0.351-1.494 0.351-3.042 0.571-4.607 0.571h-485.217c-22.157 0-40.156-18.021-40.156-40.158v-326.111h-24.584c-31.697 0-57.398-25.691-57.398-57.392v-298.465c0-31.686 25.7-57.403 57.398-57.403h24.584v-204.316c0-22.139 17.998-40.156 40.156-40.156h662.589c22.137 0 40.158 18.017 40.158 40.156v204.314h24.585c31.686 0 57.39 25.706 57.39 57.394v298.465c0.002 31.71-25.704 57.392-57.39 57.392zM180.705 919.842h465.137v-205.45c0-11.094 8.998-20.079 20.079-20.079h177.374v-100.592h-662.589v326.12zM635.527 407.296c0-54.796-19.95-92.572-47.537-115.925-30.147-25.077-76.022-36.938-132.071-36.938-33.529 0-57.304 2.095-73.455 4.236v281.099c23.784 3.823 54.775 5.941 87.481 5.941 54.333 0 89.58-9.764 117.191-30.558 29.727-22.094 48.39-57.343 48.39-107.855zM116.627 396.253c0 97.667 69.642 152.011 156.271 152.011 33.529 0 59.019-6.787 70.484-12.739l-13.17-51.373c-13.163 5.5-31.402 10.602-54.333 10.602-51.388 0-91.295-30.989-91.295-94.675 0-57.332 33.961-93.431 91.695-93.431 19.532 0 41.202 4.236 53.933 9.353l9.777-50.547c-11.906-5.922-38.65-12.295-73.455-12.295-98.945-0.002-149.906 61.564-149.906 143.093zM843.295-12.96h-662.589v193.43h662.589v-193.43zM827.92 257.39c-4.645 8.061-11.441 31.434-19.929 66.678-7.659 35.679-19.961 45.441-46.295 45.854h-19.52v-112.532h-64.117v282.369c20.817 3.384 51.804 5.943 86.194 5.943 42.451 0 72.178-6.344 92.569-22.495 16.969-13.594 26.315-33.554 26.315-59.863 0-36.521-25.902-61.581-50.532-70.501v-1.255c19.982-8.066 31.003-27.176 38.219-53.509 8.938-32.284 17.843-69.647 23.373-80.687h-66.276zM771.47 497.717c-15.714 0-24.628-1.266-29.312-2.12v-78.98h25.489c32.272 0 51.373 16.166 51.373 41.2 0 26.335-17.843 39.487-47.55 39.9z" />
<glyph unicode="&#xe916;" glyph-name="cer-file-format-symbol" d="M908.040 593.72h-24.589v118.641c0 0.746-0.117 1.485-0.216 2.24-0.039 4.705-1.549 9.335-4.765 12.999l-197.432 225.532c-0.058 0.058-0.117 0.084-0.156 0.141-1.177 1.314-2.549 2.408-3.999 3.354-0.431 0.288-0.864 0.534-1.314 0.785-1.255 0.68-2.59 1.255-3.962 1.666-0.372 0.099-0.705 0.251-1.078 0.35-1.489 0.351-3.040 0.573-4.609 0.573h-485.213c-22.157 0-40.157-18.020-40.157-40.159v-326.112h-24.589c-31.681 0-57.393-25.689-57.393-57.396v-298.471c0-31.676 25.712-57.391 57.393-57.391h24.589v-204.313c0-22.136 18-40.159 40.157-40.159h662.587c22.136 0 40.159 18.020 40.159 40.159v204.313h24.589c31.705 0 57.391 25.706 57.391 57.391v298.462c-0.002 31.716-25.689 57.396-57.393 57.396zM180.707 919.834h465.136v-205.45c0-11.093 9-20.078 20.078-20.078h177.372v-100.593h-662.587v326.121zM591.627 425.509v-56.998h-114.043v-73.558h127.377v-57.482h-197.7v309.877h191.25v-57.445h-120.926v-64.394h114.042zM119.457 387.805c0 105.776 75.437 164.622 169.229 164.622 36.314 0 63.877-7.368 76.3-13.795l-14.235-55.647c-14.274 5.996-34.044 11.495-58.843 11.495-55.647 0-98.862-33.559-98.862-102.519 0-62.079 36.764-101.137 99.317-101.137 21.153 0 44.604 4.609 58.387 10.117l10.569-54.727c-12.878-6.431-41.863-13.354-79.529-13.354-107.118 0.002-162.334 66.679-162.334 154.944zM843.294-12.971h-662.587v193.442h662.587v-193.442zM815.038 237.47c-5.059 8.745-12.391 34.040-21.607 72.197-8.264 38.627-21.597 49.196-50.109 49.648h-21.146v-121.844h-69.412v305.77c22.518 3.677 56.097 6.447 93.312 6.447 45.98 0 78.157-6.907 100.225-24.373 18.411-14.73 28.509-36.323 28.509-64.842 0-39.53-28.039-66.647-54.695-76.294v-1.413c21.597-8.725 33.568-29.45 41.391-57.921 9.647-34.94 19.296-75.411 25.276-87.373l-71.747-0.002zM753.882 497.727c-17 0-26.667-1.378-31.724-2.309v-85.504h27.569c34.979 0 55.665 17.461 55.665 44.593 0 28.489-19.314 42.76-51.51 43.221z" />
<glyph unicode="&#xe917;" glyph-name="cfg-file-format-symbol" d="M908.040 593.72h-24.589v118.641c0 0.746-0.117 1.485-0.216 2.24-0.039 4.705-1.549 9.335-4.765 12.999l-197.432 225.532c-0.058 0.058-0.117 0.084-0.156 0.141-1.177 1.314-2.549 2.408-3.999 3.354-0.431 0.288-0.864 0.534-1.314 0.785-1.255 0.68-2.59 1.255-3.962 1.666-0.372 0.099-0.705 0.251-1.078 0.35-1.489 0.351-3.040 0.573-4.609 0.573h-485.213c-22.157 0-40.157-18.020-40.157-40.159v-326.112h-24.589c-31.681 0-57.393-25.689-57.393-57.396v-298.471c0-31.676 25.712-57.391 57.393-57.391h24.589v-204.313c0-22.136 18-40.159 40.157-40.159h662.587c22.136 0 40.159 18.020 40.159 40.159v204.313h24.589c31.705 0 57.391 25.706 57.391 57.391v298.462c-0.002 31.716-25.689 57.396-57.393 57.396zM180.707 919.834h465.136v-205.45c0-11.093 9-20.078 20.078-20.078h177.372v-100.593h-662.587v326.121zM572.686 416.667v-51.942h-101.338v-113.449h-64.039v282.159h172.475v-52.338h-108.436v-64.431h101.338zM145.178 388.177c0 96.294 68.687 149.887 154.083 149.887 33.079 0 58.196-6.687 69.51-12.569l-12.999-50.67c-12.962 5.475-30.962 10.495-53.589 10.495-50.651 0-90.005-30.573-90.005-93.378 0-56.51 33.49-92.098 90.436-92.098 19.255 0 40.609 4.177 53.158 9.195l9.626-49.822c-11.705-5.864-38.078-12.138-72.412-12.138-97.553 0-147.809 60.719-147.809 141.099zM843.294-12.971h-662.587v193.442h662.587v-193.442zM863.667 264.256c-19.666-6.676-56.941-15.92-94.216-15.92-51.499 0-88.733 13.008-114.715 38.127-25.94 24.295-40.175 61.118-39.746 102.569 0.413 93.788 68.648 147.377 161.187 147.377 36.411 0 64.47-7.137 78.274-13.843l-13.391-51.040c-15.47 6.687-34.745 12.138-65.744 12.138-53.137 0-93.344-30.162-93.344-91.279 0-58.196 36.442-92.53 88.774-92.53 14.648 0 26.353 1.666 31.372 4.176v59.060h-43.529v49.772h105.079v-148.608h-0.002z" />
<glyph unicode="&#xe918;" glyph-name="cfm-file-format-symbol" d="M908.040 593.72h-24.589v118.641c0 0.746-0.117 1.485-0.216 2.24-0.039 4.705-1.549 9.335-4.765 12.999l-197.432 225.532c-0.058 0.058-0.117 0.084-0.156 0.141-1.177 1.314-2.549 2.408-3.999 3.354-0.431 0.288-0.864 0.534-1.314 0.785-1.255 0.68-2.59 1.255-3.962 1.666-0.372 0.099-0.705 0.251-1.078 0.35-1.489 0.351-3.040 0.573-4.609 0.573h-485.213c-22.157 0-40.157-18.020-40.157-40.159v-326.112h-24.589c-31.681 0-57.393-25.689-57.393-57.396v-298.471c0-31.676 25.712-57.391 57.393-57.391h24.589v-204.313c0-22.136 18-40.159 40.157-40.159h662.587c22.136 0 40.159 18.020 40.159 40.159v204.313h24.589c31.705 0 57.391 25.706 57.391 57.391v298.462c-0.002 31.716-25.689 57.396-57.393 57.396zM180.707 919.834h465.136v-205.45c0-11.093 9-20.078 20.078-20.078h177.372v-100.593h-662.587v326.121zM549.51 419.235v-53.449h-104.313v-116.804h-65.917v290.484h177.554v-53.847h-111.638v-66.383h104.313zM109.487 389.911c0 99.146 70.706 154.323 158.612 154.323 34.083 0 59.902-6.907 71.55-12.96l-13.373-52.113c-13.334 5.583-31.887 10.764-55.138 10.764-52.152 0-92.682-31.475-92.682-96.122 0-58.177 34.475-94.824 93.093-94.824 19.829 0 41.824 4.313 54.727 9.489l9.916-51.274c-12.054-6.038-39.231-12.51-74.55-12.51-100.401 0.002-152.155 62.492-152.155 145.226zM843.294-12.971h-662.587v193.442h662.587v-193.442zM850.314 248.981l-4.313 111.205c-1.324 34.912-2.597 77.168-2.597 119.398h-1.275c-9.069-37.073-21.127-78.466-32.336-112.485l-35.344-113.37h-51.293l-31.040 112.51c-9.489 34.040-19.383 75.42-26.254 113.348h-0.883c-1.744-39.231-3.019-84.034-5.155-120.26l-5.187-110.344h-60.793l18.558 290.484h87.49l28.431-96.954c9.050-33.628 18.128-69.813 24.57-103.863h1.294c8.186 33.618 18.097 71.981 27.587 104.296l31.040 96.523h85.744l15.96-290.484h-64.204z" />
<glyph unicode="&#xe919;" glyph-name="cgi-file-format-variant" d="M908.040 593.729h-24.589v118.643c0 0.746-0.117 1.485-0.216 2.24-0.039 4.705-1.539 9.335-4.765 13.001l-197.432 225.519c-0.058 0.058-0.117 0.084-0.156 0.141-1.177 1.314-2.549 2.408-3.999 3.354-0.431 0.288-0.864 0.53-1.314 0.785-1.255 0.68-2.59 1.255-3.962 1.666-0.372 0.099-0.705 0.251-1.078 0.35-1.489 0.351-3.040 0.573-4.609 0.573h-485.213c-22.157 0-40.157-18.020-40.157-40.159v-326.112h-24.583c-31.687 0-57.398-25.689-57.398-57.396v-298.471c0-31.676 25.712-57.391 57.398-57.391h24.583v-204.313c0-22.136 18-40.159 40.157-40.159h662.587c22.136 0 40.159 18.020 40.159 40.159v204.313h24.589c31.705 0 57.391 25.715 57.391 57.391v298.471c-0.002 31.707-25.689 57.396-57.393 57.396zM156.251 392.412c0 104.672 74.653 162.927 167.456 162.927 35.961 0 63.275-7.299 75.545-13.642l-14.113-55.074c-14.098 5.923-33.672 11.393-58.259 11.393-55.054 0-97.823-33.22-97.823-101.485 0-61.431 36.392-100.098 98.293-100.098 20.922 0 44.132 4.549 57.789 10l10.471-54.167c-12.75-6.353-41.412-13.187-78.709-13.187-106.036-0.019-160.649 65.982-160.649 153.334zM843.294-12.96h-662.587v193.431h662.587v-193.431zM582.608 296.413c15.942 0 28.688 1.805 34.137 4.549v64.156h-47.313v54.137h114.196v-161.529c-21.372-7.275-61.862-17.295-102.372-17.295-55.961 0-96.471 14.118-124.691 41.412-28.201 26.392-43.671 66.43-43.221 111.48 0.446 101.931 74.614 160.187 175.186 160.187 39.588 0 70.098-7.741 85.118-15.014l-14.59-55.509c-16.823 7.28-37.746 13.192-71.421 13.192-57.783 0-101.465-32.765-101.465-99.197-0.009-63.254 39.573-100.569 96.436-100.569zM737.745 243.629v306.681h69.646v-306.681h-69.646zM843.294 593.729h-662.587v326.112h465.136v-205.45c0-11.099 9-20.078 20.078-20.078h177.372v-100.583z" />
<glyph unicode="&#xe91a;" glyph-name="class-file-format-symbol" d="M528.937 431.823c-3.451 12.45-6.855 28.024-9.725 40.484h-0.563c-2.872-12.46-5.72-28.348-8.853-40.484l-11.447-44.559h42.572l-11.984 44.559zM908.040 593.72h-24.589v118.652c0 0.746-0.117 1.485-0.216 2.24-0.039 4.705-1.539 9.338-4.765 13.001l-197.432 225.519c-0.058 0.063-0.117 0.084-0.156 0.141-1.177 1.318-2.549 2.413-3.999 3.354-0.431 0.294-0.864 0.534-1.314 0.785-1.255 0.68-2.59 1.255-3.962 1.666-0.372 0.099-0.705 0.251-1.078 0.353-1.489 0.348-3.040 0.569-4.609 0.569h-485.213c-22.157 0-40.157-18.020-40.157-40.159v-326.112h-24.583c-31.696 0-57.398-25.689-57.398-57.391v-298.465c0-31.687 25.7-57.402 57.398-57.402h24.583v-204.313c0-22.136 18-40.159 40.157-40.159h662.587c22.136 0 40.159 18.020 40.159 40.159v204.313h24.589c31.687 0 57.391 25.706 57.391 57.391v298.465c-0.002 31.713-25.706 57.393-57.393 57.393zM180.707 919.841h465.136v-205.45c0-11.093 9-20.078 20.078-20.078h177.372v-100.593h-662.587v326.121zM682.677 386.031c-32.010 12.136-52.864 31.451-52.864 61.99 0 35.823 27.422 63.23 72.844 63.23 21.727 0 37.725-4.99 49.147-10.582l-9.706-38.309c-7.713 4.034-21.43 9.961-40.283 9.961s-28.002-9.348-28.002-20.24c0-13.393 10.865-19.333 35.717-29.597 33.999-13.717 50.001-33.020 50.001-62.619 0-35.197-24.864-65.087-77.735-65.087-21.99 0-43.717 6.224-54.559 12.753l8.844 39.253c11.725-6.548 29.714-13.086 48.294-13.086 19.991 0 30.567 9.028 30.567 22.735 0.019 13.077-9.119 20.565-32.265 29.597zM608.942 297.863h-46.853l-14.873 53.892h-55.132l-13.711-53.892h-45.167l58.876 209.951h57.132l59.728-209.951zM419.795 337.746v-39.884h-120.314v209.951h43.711v-170.068h76.603zM120.595 399.725c0 71.648 46.872 111.515 105.151 111.515 22.579 0 39.737-4.992 47.437-9.348l-8.868-37.686c-8.853 4.055-21.142 7.78-36.574 7.78-34.563 0-61.427-22.739-61.427-69.455 0-42.049 22.858-68.529 61.721-68.529 13.129 0 27.706 3.118 36.281 6.855l6.598-37.069c-8.015-4.363-26.024-9.028-49.436-9.028-66.58 0.004-100.883 45.16-100.883 104.964zM843.294-12.96h-662.587v193.431h662.587v-193.431zM836.128 294.766c-22.010 0-43.717 6.217-54.578 12.765l8.864 39.244c11.705-6.54 29.714-13.088 48.294-13.088 19.991 0 30.567 9.020 30.567 22.744 0 13.079-9.156 20.549-32.304 29.588-31.99 12.136-52.871 31.451-52.871 61.99 0 35.823 27.452 63.23 72.883 63.23 21.726 0 37.705-4.992 49.155-10.584l-9.734-38.309c-7.697 4.034-21.402 9.959-40.285 9.959-18.853 0-27.98-9.348-27.98-20.24 0-13.391 10.842-19.324 35.706-29.599 33.999-13.705 49.99-33.020 49.99-62.607-0.002-35.191-24.834-65.093-77.707-65.093z" />
<glyph unicode="&#xe91b;" glyph-name="com-file-format-symbol" d="M389.060 396.275c0-51.393 24.118-87.609 63.82-87.609 40.118 0 63.078 38.156 63.078 89.157 0 47.117-22.568 87.592-63.485 87.592-40.079 0.002-63.412-38.142-63.412-89.141zM908.040 593.729h-24.589v118.643c0 0.746-0.117 1.485-0.216 2.24-0.039 4.705-1.539 9.335-4.765 13.001l-197.432 225.519c-0.058 0.058-0.117 0.084-0.156 0.141-1.177 1.314-2.549 2.408-3.999 3.354-0.431 0.288-0.864 0.53-1.314 0.785-1.255 0.68-2.59 1.255-3.962 1.666-0.372 0.099-0.705 0.251-1.078 0.35-1.489 0.351-3.040 0.573-4.609 0.573h-485.213c-22.157 0-40.157-18.020-40.157-40.159v-326.112h-24.583c-31.687 0-57.398-25.689-57.398-57.396v-298.471c0-31.676 25.712-57.391 57.398-57.391h24.583v-204.313c0-22.136 18-40.159 40.157-40.159h662.587c22.136 0 40.159 18.020 40.159 40.159v204.313h24.589c31.705 0 57.391 25.715 57.391 57.391v298.471c-0.002 31.707-25.689 57.396-57.393 57.396zM180.707 919.841h465.136v-205.45c0-11.099 9-20.078 20.078-20.078h177.372v-100.593h-662.587v326.121zM578.628 399.764c0-86.038-52.17-138.206-128.859-138.206-77.848 0-123.393 58.774-123.393 133.519 0 78.642 50.196 137.422 127.686 137.422 80.585 0.011 124.566-60.323 124.566-132.735zM106.417 393.157c0 89.55 63.859 139.353 143.269 139.353 30.75 0 54.122-6.235 64.643-11.666l-12.099-47.114c-12.053 5.079-28.803 9.731-49.822 9.731-47.112 0-83.706-28.392-83.706-86.804 0-52.538 31.162-85.618 84.099-85.618 17.896 0 37.764 3.882 49.43 8.55l8.966-46.314c-10.902-5.47-35.446-11.313-67.333-11.313-90.706-0.020-137.446 56.43-137.446 131.194zM843.294-12.96h-662.587v193.431h662.587v-193.431zM843.313 265.843l-3.882 100.431c-1.177 31.549-2.335 69.678-2.335 107.838h-1.156c-8.186-33.466-19.089-70.847-29.216-101.584l-31.9-102.392h-46.355l-28 101.589c-8.569 30.755-17.52 68.136-23.735 102.387h-0.805c-1.539-35.427-2.716-75.906-4.668-108.604l-4.657-99.665h-54.901l16.726 262.393h79.040l25.695-87.588c8.167-30.372 16.353-63.080 22.196-93.833h1.127c7.41 30.361 16.373 65.030 24.94 94.196l28.019 87.226h77.491l14.403-262.393h-58.025z" />
<glyph unicode="&#xe91c;" glyph-name="cpl-file-format" d="M908.037 593.72h-24.585v118.641c0 0.745-0.12 1.485-0.217 2.241-0.039 4.706-1.548 9.333-4.764 12.999l-197.432 225.532c-0.058 0.058-0.12 0.082-0.159 0.14-1.175 1.315-2.547 2.409-3.999 3.354-0.431 0.288-0.863 0.534-1.315 0.783-1.255 0.682-2.589 1.255-3.961 1.668-0.372 0.097-0.704 0.25-1.076 0.347-1.494 0.355-3.042 0.575-4.607 0.575h-485.217c-22.157 0-40.156-18.021-40.156-40.158v-326.111h-24.589c-31.68 0-57.39-25.691-57.39-57.398v-298.468c0-31.677 25.71-57.394 57.39-57.394h24.589v-204.316c0-22.139 17.998-40.156 40.156-40.156h662.589c22.137 0 40.158 18.017 40.158 40.156v204.314h24.585c31.707 0 57.39 25.706 57.39 57.394v298.459c0.002 31.716-25.684 57.398-57.39 57.398zM180.705 919.833h465.137v-205.45c0-11.094 8.998-20.079 20.079-20.079h177.374v-100.592h-662.589v326.12zM647.176 449.848c0-27.633-9.215-51.065-25.943-66.986-21.782-20.51-54.040-29.725-91.706-29.725-8.373 0-15.903 0.413-21.79 1.255v-100.9h-63.197v278.416c19.687 3.351 47.294 5.862 86.241 5.862 39.371 0 67.412-7.551 86.234-22.608 18.023-14.235 30.16-37.689 30.16-65.314zM339.847 302.059c19.255 0 40.626 4.195 53.177 9.215l9.628-49.824c-11.725-5.864-38.079-12.136-72.411-12.136-97.574 0-147.809 60.705-147.809 141.078 0 96.298 68.684 149.886 154.081 149.886 33.079 0 58.176-6.705 69.49-12.567l-12.98-50.65c-12.982 5.452-30.961 10.472-53.588 10.472-50.672 0-90.025-30.567-90.025-93.377 0.002-56.507 33.516-92.096 90.438-92.096zM843.295-12.971h-662.589v193.441h662.589v-193.441zM864.077 253.492h-176.257v282.179h64.041v-228.591h112.216v-53.588zM534.136 489.632c-12.98 0-21.788-1.255-26.395-2.512v-83.318c5.476-1.255 12.162-1.686 21.377-1.686 33.922 0 54.845 17.16 54.845 46.065 0 25.943-18.023 41.452-49.826 41.452z" />
<glyph unicode="&#xe91d;" glyph-name="cpp-icon-file-format" d="M752.706 483.069c-12.823 0-21.519-1.276-26.079-2.51v-82.274c5.405-1.225 11.99-1.668 21.099-1.668 33.529 0 54.197 16.951 54.197 45.508-0.002 25.654-17.783 40.944-49.216 40.944zM512.283 483.069c-12.814 0-21.513-1.276-26.072-2.51v-82.274c5.401-1.225 12.020-1.668 21.123-1.668 33.529 0 54.178 16.951 54.178 45.508-0.021 25.654-17.776 40.944-49.229 40.944zM908.039 593.73h-24.589v118.643c0 0.745-0.116 1.485-0.215 2.241-0.039 4.71-1.541 9.338-4.766 12.999l-197.428 225.521c-0.062 0.063-0.12 0.082-0.159 0.14-1.177 1.315-2.547 2.413-4.002 3.354-0.428 0.293-0.861 0.534-1.311 0.783-1.255 0.682-2.59 1.255-3.961 1.668-0.374 0.097-0.708 0.25-1.078 0.351-1.492 0.351-3.040 0.571-4.607 0.571h-485.217c-22.156 0-40.156-18.021-40.156-40.158v-326.111h-24.585c-31.695 0-57.396-25.691-57.396-57.392v-298.465c0-31.686 25.7-57.403 57.396-57.403h24.585v-204.316c0-22.139 18-40.156 40.156-40.156h662.587c22.137 0 40.156 18.017 40.156 40.156v204.314h24.589c31.686 0 57.39 25.706 57.39 57.394v298.459c0.002 31.716-25.702 57.407-57.388 57.407zM180.705 919.842h465.139v-205.45c0-11.094 8.996-20.079 20.079-20.079h177.372v-100.592h-662.589v326.12zM624 443.773c0-27.321-9.129-50.478-25.667-66.192-21.511-20.286-53.343-29.385-90.587-29.385-8.275 0-15.712 0.392-21.534 1.236v-99.684h-62.455v275.076c19.455 3.309 46.754 5.797 85.216 5.797 38.882 0 66.614-7.426 85.225-22.357 17.802-14.022 29.802-37.196 29.802-64.491zM164.706 385c0 95.167 67.862 148.102 152.247 148.102 32.685 0 57.506-6.623 68.656-12.388l-12.819-50.058c-12.788 5.392-30.579 10.311-52.927 10.311-50.069 0-88.951-30.156-88.951-92.223 0-55.844 33.124-90.992 89.382-90.992 19.005 0 40.117 4.116 52.495 9.088l9.534-49.223c-11.583-5.805-37.657-11.99-71.599-11.99-96.336 0.002-146.018 59.939-146.018 139.373zM843.295-12.96h-662.589v193.43h662.587v-193.43zM838.766 377.58c-21.511-20.286-53.365-29.385-90.591-29.385-8.285 0-15.714 0.392-21.528 1.236v-99.684h-62.459v275.076c19.459 3.309 46.733 5.797 85.236 5.797 38.854 0 66.596-7.426 85.184-22.357 17.804-14.033 29.805-37.216 29.805-64.51-0.002-27.303-9.101-50.459-25.648-66.174z" />
<glyph unicode="&#xe91e;" glyph-name="crx-file-format-symbol" d="M908.040 593.72h-24.589v118.641c0 0.746-0.117 1.485-0.216 2.24-0.039 4.705-1.549 9.335-4.765 12.999l-197.441 225.532c-0.048 0.058-0.11 0.084-0.147 0.141-1.177 1.314-2.549 2.408-3.999 3.354-0.431 0.288-0.864 0.534-1.314 0.785-1.255 0.68-2.59 1.255-3.962 1.666-0.372 0.099-0.705 0.251-1.078 0.35-1.489 0.351-3.040 0.573-4.609 0.573h-485.213c-22.157 0-40.157-18.020-40.157-40.159v-326.112h-24.589c-31.69 0-57.393-25.689-57.393-57.396v-298.471c0-31.676 25.7-57.391 57.393-57.391h24.589v-204.313c0-22.136 18-40.159 40.157-40.159h662.587c22.136 0 40.159 18.020 40.159 40.159v204.313h24.589c31.687 0 57.391 25.706 57.391 57.391v298.462c-0.002 31.716-25.706 57.396-57.393 57.396zM180.707 919.834h465.136v-205.45c0-11.093 9-20.078 20.078-20.078h177.372v-100.593h-662.587v326.121zM594.040 333.764c8.792-31.822 17.578-68.666 23.029-79.548h-65.314c-4.598 7.959-11.303 30.98-19.675 65.725-7.531 35.176-19.668 44.784-45.628 45.215h-19.255v-110.941h-63.221v278.385c20.51 3.372 51.083 5.882 84.986 5.882 41.862 0 71.176-6.274 91.264-22.194 16.745-13.417 25.951-33.083 25.951-59.045 0-35.998-25.539-60.687-49.824-69.49v-1.255c19.688-7.951 30.581-26.794 37.688-52.736zM141.865 391.108c0 96.298 68.657 149.887 154.063 149.887 33.079 0 58.196-6.706 69.49-12.569l-12.971-50.672c-12.98 5.451-30.98 10.471-53.578 10.471-50.657 0-90.014-30.549-90.014-93.352 0-56.53 33.496-92.098 90.436-92.098 19.255 0 40.599 4.176 53.167 9.195l9.626-49.813c-11.716-5.882-38.097-12.157-72.422-12.157-97.553 0.019-147.797 60.726-147.797 141.108zM843.294-12.971h-662.587v193.442h662.587v-193.442zM804.236 254.217l-25.529 51.079c-10.471 19.666-17.158 34.314-25.118 50.646h-0.842c-5.845-16.332-12.98-30.98-21.765-50.646l-23.451-51.079h-72.844l81.647 142.744-78.705 139.415h73.255l24.706-51.471c8.372-17.18 14.646-30.984 21.352-46.905h0.824c6.704 18 12.136 30.567 19.253 46.905l23.864 51.471h72.844l-79.529-137.73 83.725-144.431h-73.684zM496.080 491.171c-15.49 0-24.284-1.255-28.883-2.103v-77.863h25.117c31.813 0 50.648 15.903 50.648 40.609 0.011 25.94-17.578 38.922-46.881 39.357z" />
<glyph unicode="&#xe91f;" glyph-name="csr-file-format-variant" d="M908.040 593.72h-24.589v118.641c0 0.746-0.117 1.485-0.216 2.24-0.039 4.705-1.549 9.335-4.765 12.999l-197.432 225.532c-0.058 0.058-0.117 0.084-0.156 0.141-1.177 1.314-2.549 2.408-3.999 3.354-0.431 0.288-0.864 0.534-1.314 0.785-1.255 0.68-2.59 1.255-3.962 1.666-0.372 0.099-0.705 0.251-1.078 0.35-1.489 0.351-3.040 0.573-4.609 0.573h-485.213c-22.157 0-40.157-18.020-40.157-40.159v-326.112h-24.589c-31.681 0-57.393-25.689-57.393-57.396v-298.471c0-31.676 25.712-57.391 57.393-57.391h24.589v-204.313c0-22.136 18-40.159 40.157-40.159h662.587c22.136 0 40.159 18.020 40.159 40.159v204.313h24.589c31.705 0 57.391 25.706 57.391 57.391v298.462c-0.002 31.716-25.689 57.396-57.393 57.396zM180.707 919.834h465.136v-205.45c0-11.093 9-20.078 20.078-20.078h177.372v-100.593h-662.587v326.121zM478.448 378.589c-51.059 17.784-84.309 46.039-84.309 90.667 0 52.403 43.721 92.5 116.176 92.5 34.646 0 60.137-7.29 78.393-15.499l-15.531-56.021c-12.292 5.931-34.156 14.579-64.21 14.579-30.079 0-44.643-13.666-44.643-29.608 0-19.608 17.318-28.244 56.961-43.284 54.186-20.058 79.717-48.322 79.717-91.608 0-51.488-39.638-95.214-123.956-95.214-35.080 0-69.705 9.098-87.021 18.665l14.133 57.441c18.662-9.587 47.398-19.138 76.999-19.138 31.887 0 48.74 13.187 48.74 33.226 0 19.175-14.562 30.116-51.449 43.293zM116.687 398.647c0 104.8 74.74 163.107 167.662 163.107 36.024 0 63.338-7.29 75.627-13.663l-14.137-55.117c-14.073 5.912-33.682 11.363-58.274 11.363-55.138 0-97.966-33.235-97.966-101.574 0-61.529 36.431-100.264 98.397-100.264 20.98 0 44.212 4.559 57.843 10.048l10.491-54.236c-12.726-6.392-41.471-13.198-78.784-13.198-106.159-0.006-160.86 66.043-160.86 153.533zM843.294-12.971h-662.587v193.442h662.587v-193.442zM808.726 249.658c-4.999 8.656-12.294 33.715-21.432 71.557-8.175 38.255-21.391 48.725-49.666 49.177h-20.941v-120.734h-68.785v303.003c22.315 3.642 55.55 6.373 92.491 6.373 45.548 0 77.471-6.849 99.334-24.137 18.216-14.583 28.244-36.009 28.244-64.258 0-39.166-27.814-66.049-54.206-75.638v-1.363c21.393-8.656 33.235-29.147 41.001-57.402 9.539-34.628 19.128-74.725 25.050-86.577h-71.089zM748.117 507.524c-16.862 0-26.431-1.348-31.43-2.259v-84.755h27.353c34.607 0 55.098 17.334 55.098 44.226 0 28.24-19.101 42.377-51.021 42.787z" />
<glyph unicode="&#xe920;" glyph-name="css-file-format-symbol" d="M908.038 593.716h-24.589v118.647c0 0.74-0.117 1.485-0.216 2.235-0.039 4.711-1.537 9.338-4.763 13.004l-197.432 225.531c-0.059 0.058-0.117 0.078-0.158 0.141-1.177 1.314-2.549 2.408-3.999 3.354-0.429 0.288-0.863 0.53-1.313 0.779-1.257 0.686-2.59 1.255-3.962 1.666-0.372 0.104-0.706 0.251-1.078 0.353-1.491 0.353-3.040 0.574-4.609 0.574h-485.215c-22.157 0-40.157-18.020-40.157-40.159v-326.116h-24.587c-31.69 0-57.393-25.685-57.393-57.393v-298.471c0-31.676 25.7-57.391 57.393-57.391h24.589v-204.313c0-22.136 18-40.159 40.157-40.159h662.587c22.136 0 40.157 18.020 40.157 40.159v204.313h24.589c31.687 0 57.393 25.706 57.393 57.391v298.462c-0.002 31.705-25.708 57.393-57.394 57.393zM180.706 919.834h465.136v-205.456c0-11.093 9-20.078 20.078-20.078h177.372v-100.593h-662.587v326.127zM490.045 368.461c-49.815 17.353-82.299 44.922-82.299 88.503 0 51.176 42.696 90.329 113.45 90.329 33.795 0 58.705-7.117 76.51-15.137l-15.118-54.727c-12.030 5.804-33.362 14.259-62.751 14.259-29.352 0-43.587-13.354-43.587-28.926 0-19.136 16.916-27.587 55.612-42.274 52.942-19.569 77.843-47.138 77.843-89.412 0-50.276-38.686-92.982-120.995-92.982-34.254 0-68.058 8.922-84.965 18.255l13.795 56.039c18.236-9.335 46.264-18.665 75.186-18.665 31.138 0 47.588 12.882 47.588 32.451 0 18.71-14.235 29.367-50.268 42.287zM136.784 388.020c0 102.333 72.976 159.274 163.721 159.274 35.137 0 61.828-7.117 73.848-13.348l-13.795-53.823c-13.804 5.765-32.916 11.093-56.941 11.093-53.834 0-95.648-32.466-95.648-99.176 0-60.060 35.593-97.882 96.097-97.882 20.46 0 43.146 4.432 56.5 9.803l10.221-52.949c-12.46-6.235-40.48-12.902-76.96-12.902-103.647-0.002-157.045 64.519-157.045 149.911zM843.294-12.971h-662.589v193.442h662.587v-193.442zM728.961 238.107c-34.245 0-68.049 8.933-84.959 18.255l13.804 56.041c18.216-9.344 46.255-18.667 75.156-18.667 31.157 0 47.608 12.884 47.608 32.441 0 18.686-14.226 29.363-50.255 42.284-49.824 17.353-82.312 44.922-82.312 88.503 0 51.176 42.717 90.329 113.45 90.329 33.814 0 58.726-7.117 76.528-15.137l-15.139-54.727c-11.999 5.804-33.351 14.259-62.725 14.259-29.363 0-43.587-13.354-43.587-28.926 0-19.136 16.901-27.587 55.608-42.274 52.942-19.569 77.852-47.138 77.852-89.412-0.011-50.261-38.718-92.969-121.030-92.969z" />
<glyph unicode="&#xe921;" glyph-name="csv-file-format-extension" d="M908.037 593.72h-24.585v118.652c0 0.745-0.12 1.485-0.217 2.241-0.039 4.706-1.539 9.338-4.764 12.999l-197.432 225.521c-0.058 0.063-0.12 0.082-0.159 0.14-1.175 1.32-2.547 2.413-3.999 3.354-0.431 0.293-0.863 0.534-1.315 0.783-1.255 0.682-2.589 1.255-3.961 1.668-0.372 0.097-0.704 0.25-1.076 0.351-1.494 0.351-3.042 0.571-4.607 0.571h-485.217c-22.157 0-40.156-18.021-40.156-40.158v-326.111h-24.584c-31.697 0-57.398-25.691-57.398-57.392v-298.465c0-31.686 25.7-57.403 57.398-57.403h24.584v-204.316c0-22.139 17.998-40.156 40.156-40.156h662.589c22.137 0 40.158 18.017 40.158 40.156v204.314h24.585c31.686 0 57.39 25.706 57.39 57.394v298.465c0.002 31.71-25.704 57.392-57.39 57.392zM180.705 919.842h465.137v-205.45c0-11.094 8.998-20.079 20.079-20.079h177.374v-100.592h-662.589v326.12zM483 375.098c-49.828 17.352-82.293 44.922-82.293 88.505 0 51.18 42.696 90.333 113.426 90.333 33.817 0 58.731-7.118 76.513-15.141l-15.109-54.721c-12.009 5.803-33.359 14.254-62.733 14.254-29.353 0-43.588-13.352-43.588-28.92 0-19.138 16.896-27.583 55.618-42.268 52.93-19.571 77.844-47.137 77.844-89.411 0-50.256-38.699-92.981-121.007-92.981-34.248 0-68.073 8.92-84.971 18.247l13.783 56.059c18.25-9.364 46.27-18.687 75.198-18.687 31.135 0 47.602 12.902 47.602 32.489-0.009 18.695-14.254 29.361-50.282 42.244zM129.751 394.686c0 102.31 72.975 159.25 163.704 159.25 35.152 0 61.843-7.118 73.863-13.352l-13.805-53.817c-13.783 5.76-32.93 11.092-56.946 11.092-53.829 0-95.633-32.45-95.633-99.169 0-60.059 35.58-97.863 96.1-97.863 20.445 0 43.136 4.441 56.479 9.783l10.24-52.94c-12.461-6.238-40.479-12.922-76.961-12.922-103.653-0.002-157.041 64.528-157.041 149.938zM843.295-12.96h-662.589v193.43h662.589v-193.43zM798.442 249.215h-79.185l-96.089 299.82h74.307l36.467-126.8c10.233-35.571 19.571-69.823 26.705-107.196h1.324c7.56 36.041 16.893 71.627 27.129 105.881l38.262 128.115h72.088l-101.008-299.82z" />
<glyph unicode="&#xe922;" glyph-name="cue-file-format-variant" d="M908.038 593.716h-24.589v118.658c0 0.74-0.117 1.485-0.216 2.237-0.039 4.709-1.537 9.336-4.763 13.004l-197.432 225.518c-0.059 0.058-0.117 0.078-0.158 0.138-1.177 1.318-2.549 2.411-3.999 3.352-0.429 0.294-0.863 0.535-1.313 0.785-1.257 0.686-2.59 1.255-3.962 1.666-0.372 0.104-0.706 0.251-1.078 0.353-1.491 0.353-3.040 0.574-4.609 0.574h-485.215c-22.157 0-40.157-18.024-40.157-40.159v-326.116h-24.587c-31.681 0-57.393-25.691-57.393-57.393v-298.471c0-31.685 25.712-57.391 57.393-57.391h24.589v-204.313c0-22.136 18-40.159 40.157-40.159h662.587c22.136 0 40.157 18.020 40.157 40.159v204.301h24.589c31.707 0 57.393 25.717 57.393 57.402v298.462c-0.002 31.711-25.689 57.393-57.394 57.393zM180.706 919.841h465.136v-205.456c0-11.093 9-20.078 20.078-20.078h177.372v-100.593h-662.587v326.127zM520.822 296.902c33.49 0 51.903 23.471 51.903 73.295v162.401h63.665v-158.266c0-87.058-43.961-128.53-117.667-128.53-71.156 0-113.038 39.374-113.038 129.394v157.402h64.078v-162.421c0.002-48.549 18.413-73.275 51.059-73.275zM144.001 387.355c0 96.293 68.692 149.861 154.083 149.861 33.077 0 58.175-6.706 69.49-12.569l-12.98-50.646c-12.978 5.43-30.96 10.45-53.587 10.45-50.666 0-90.020-30.549-90.020-93.333 0-56.528 33.509-92.117 90.433-92.117 19.253 0 40.627 4.196 53.176 9.216l9.619-49.824c-11.727-5.862-38.078-12.136-72.412-12.136-97.562 0-147.801 60.706-147.801 141.099zM843.294-12.96h-662.589v193.42h662.587v-193.42zM871.705 250.431h-180.020v282.167h174.158v-52.334h-110.117v-58.608h103.842v-51.932h-103.842v-66.978h115.981v-52.314z" />
<glyph unicode="&#xe923;" glyph-name="cur-icon-file-format" d="M908.037 593.72h-24.585v118.641c0 0.745-0.12 1.485-0.217 2.241-0.039 4.706-1.548 9.333-4.764 12.999l-197.432 225.532c-0.058 0.058-0.12 0.082-0.159 0.14-1.175 1.315-2.547 2.409-3.999 3.354-0.431 0.288-0.863 0.534-1.315 0.783-1.255 0.682-2.589 1.255-3.961 1.668-0.372 0.097-0.704 0.25-1.076 0.347-1.494 0.355-3.042 0.575-4.607 0.575h-485.217c-22.157 0-40.156-18.021-40.156-40.158v-326.111h-24.589c-31.68 0-57.39-25.691-57.39-57.398v-298.468c0-31.677 25.71-57.394 57.39-57.394h24.589v-204.316c0-22.139 17.998-40.156 40.156-40.156h662.589c22.137 0 40.158 18.017 40.158 40.156v204.314h24.585c31.707 0 57.39 25.706 57.39 57.394v298.459c0.002 31.716-25.684 57.398-57.39 57.398zM180.705 919.833h465.137v-205.45c0-11.094 8.998-20.079 20.079-20.079h177.374v-100.592h-662.589v326.12zM501.587 291.982c33.509 0 51.922 23.45 51.922 73.274v162.435h63.626v-158.26c0-87.078-43.96-128.53-117.625-128.53-71.177 0-113.040 39.353-113.040 129.374v157.416h64.059v-162.435c-0.002-48.569 18.432-73.274 51.057-73.274zM124.783 382.412c0 96.298 68.652 149.888 154.064 149.888 33.098 0 58.197-6.707 69.49-12.569l-12.961-50.646c-12.98 5.431-30.999 10.449-53.588 10.449-50.667 0-90.019-30.549-90.019-93.359 0-56.527 33.492-92.096 90.432-92.096 19.255 0 40.608 4.18 53.177 9.217l9.628-49.823c-11.725-5.881-38.116-12.158-72.43-12.158-97.551 0.007-147.792 60.726-147.792 141.097zM843.295-12.971h-662.589v193.441h662.589v-193.441zM820.237 245.519c-4.611 7.964-11.295 30.982-19.666 65.725-7.53 35.179-19.666 44.804-45.647 45.217h-19.257v-110.942h-63.197v278.406c20.492 3.354 51.059 5.864 84.96 5.864 41.885 0 71.197-6.296 91.276-22.197 16.743-13.413 25.958-33.077 25.958-59.039 0-36.004-25.527-60.69-49.802-69.494v-1.257c19.664-7.96 30.547-26.802 37.666-52.743 8.783-31.826 17.567-68.669 23.039-79.551l-65.331 0.011zM764.548 482.475c-15.49 0-24.273-1.255-28.883-2.099v-77.869h25.118c31.822 0 50.665 15.905 50.665 40.61 0 25.967-17.586 38.927-46.9 39.358z" />
<glyph unicode="&#xe924;" glyph-name="dat-file-format-symbol" d="M542.922 442.539c-4.843 16.133-9.686 36.334-13.72 52.496h-0.814c-4.038-16.152-8.083-36.745-12.517-52.496l-16.143-57.746h60.157l-16.963 57.746zM328.064 409.432c0.413 56.53-32.696 86.408-85.593 86.408-13.735 0-22.609-1.214-27.862-2.432v-178.062c5.254-1.197 13.735-1.197 21.397-1.197 55.727-0.413 92.059 30.283 92.059 95.283zM908.040 593.72h-24.589v118.641c0 0.746-0.117 1.485-0.216 2.24-0.039 4.705-1.539 9.338-4.765 12.999l-197.432 225.532c-0.058 0.063-0.117 0.084-0.156 0.141-1.177 1.318-2.549 2.413-3.999 3.354-0.431 0.294-0.864 0.534-1.314 0.785-1.255 0.68-2.59 1.255-3.962 1.666-0.372 0.099-0.705 0.251-1.078 0.353-1.489 0.348-3.040 0.569-4.609 0.569h-485.213c-22.157 0-40.157-18.020-40.157-40.159v-326.112h-24.583c-31.696 0-57.398-25.689-57.398-57.391v-298.465c0-31.687 25.7-57.402 57.398-57.402h24.583v-204.313c0-22.136 18-40.159 40.157-40.159h662.587c22.136 0 40.159 18.020 40.159 40.159v204.313h24.589c31.687 0 57.391 25.706 57.391 57.391v298.465c-0.002 31.702-25.706 57.393-57.393 57.393zM180.707 919.834h465.136v-205.45c0-11.093 9-20.078 20.078-20.078h177.372v-100.593h-662.587v326.121zM571.589 541.053l84.392-272.131h-66.225l-20.991 69.862h-77.926l-19.372-69.862h-63.799l83.171 272.131h80.75zM152.839 270.138v267.294c22.609 3.622 52.083 5.652 83.165 5.652 51.681 0 85.201-9.294 111.446-29.075 28.258-21.004 46.030-54.494 46.030-102.549 0-52.089-18.985-88.029-45.23-110.225-28.662-23.823-72.269-35.137-125.559-35.137-31.9 0-54.515 2.010-69.852 4.040zM843.294-12.971h-662.587v193.442h662.587v-193.442zM847.403 489.364h-74.284v-220.451h-61.786v220.451h-73.069v51.681h209.146v-51.681h-0.007z" />
<glyph unicode="&#xe925;" glyph-name="dbf-file-format" d="M587.765 467.505c0 21.226-16.233 32.446-44.961 32.446-13.734 0-21.648-0.824-27.058-1.647v-65.372h20.822c33.315 0.011 51.197 13.755 51.197 34.573zM343.833 408.383c0.422 58.287-33.72 89.086-88.275 89.086-14.123 0-23.289-1.234-28.7-2.499v-183.58c5.41-1.255 14.151-1.255 22.053-1.255 57.448-0.411 94.922 31.219 94.922 98.248zM537.401 387.568h-21.646v-79.098c6.245-0.824 13.744-0.824 24.555-0.824 28.728 0 54.129 10.793 54.129 40.363 0.002 28.322-25.4 39.558-57.039 39.558zM908.047 593.73h-24.589v118.643c0 0.745-0.116 1.485-0.204 2.241-0.039 4.706-1.546 9.333-4.774 12.999l-197.441 225.521c-0.058 0.058-0.12 0.082-0.159 0.14-1.175 1.315-2.547 2.409-3.999 3.354-0.431 0.288-0.863 0.529-1.315 0.783-1.255 0.682-2.589 1.255-3.961 1.668-0.372 0.097-0.704 0.25-1.076 0.347-1.494 0.355-3.042 0.575-4.607 0.575h-485.217c-22.157 0-40.156-18.021-40.156-40.158v-326.111h-24.584c-31.697 0-57.398-25.691-57.398-57.398v-298.468c0-31.677 25.7-57.394 57.398-57.394h24.584v-204.316c0-22.139 17.998-40.156 40.156-40.156h662.589c22.137 0 40.158 18.017 40.158 40.156v204.314h24.585c31.686 0 57.39 25.719 57.39 57.394v298.468c0.002 31.707-25.684 57.398-57.381 57.398zM180.705 919.842h465.137v-205.45c0-11.099 8.998-20.079 20.079-20.079h177.374v-100.592h-662.589v326.12zM661.039 345.541c0-25.413-11.646-45.383-29.14-59.56-20.391-16.218-54.529-25.385-110.322-25.385-31.219 0-54.544 2.081-68.7 4.157v275.609c16.676 3.317 50.377 5.799 82.024 5.799 38.706 0 62.442-3.72 82.85-15.791 19.561-10.429 33.718-29.568 33.718-54.975 0-24.955-14.59-48.297-46.225-59.926v-0.84c32.071-8.748 55.797-32.883 55.797-69.087zM163.146 264.754v275.609c23.325 3.739 53.713 5.799 85.776 5.799 53.289 0 87.842-9.553 114.9-29.947 29.142-21.642 47.458-56.2 47.458-105.756 0-53.694-19.571-90.744-46.614-113.656-29.578-24.537-74.533-36.196-129.475-36.196-32.911-0.009-56.2 2.071-72.045 4.148zM843.295-12.96h-662.589v193.43h662.589v-193.43zM875.853 492.082h-107.844v-64.132h100.745v-51.619h-100.745v-112.812h-63.684v280.584h171.519v-52.019h0.009z" />
<glyph unicode="&#xe926;" glyph-name="db-file-format-symbol" d="M648.824 377.412h-23.137v-84.53c6.667-0.891 14.678-0.891 26.234-0.891 30.714 0 57.843 11.558 57.843 43.167 0.011 30.235-27.126 42.254-60.94 42.254zM702.647 462.809c0 22.69-17.353 34.715-48.039 34.715-14.696 0-23.148-0.891-28.922-1.785v-69.837h22.235c35.58 0 54.727 14.687 54.727 36.907zM908.040 593.72h-24.589v118.652c0 0.746-0.117 1.485-0.216 2.24-0.039 4.705-1.539 9.338-4.765 13.001l-197.432 225.519c-0.058 0.063-0.117 0.084-0.156 0.141-1.177 1.318-2.549 2.413-3.999 3.354-0.431 0.294-0.864 0.534-1.314 0.785-1.255 0.68-2.59 1.255-3.962 1.666-0.372 0.099-0.705 0.251-1.078 0.353-1.489 0.348-3.040 0.569-4.609 0.569h-485.213c-22.157 0-40.157-18.020-40.157-40.159v-326.112h-24.583c-31.696 0-57.398-25.689-57.398-57.391v-298.465c0-31.687 25.7-57.402 57.398-57.402h24.583v-204.313c0-22.136 18-40.159 40.157-40.159h662.587c22.136 0 40.159 18.020 40.159 40.159v204.313h24.589c31.687 0 57.391 25.706 57.391 57.391v298.465c-0.002 31.713-25.706 57.393-57.393 57.393zM843.294-12.96h-662.587v193.431h662.587v-193.431zM248.844 246.157v294.504c24.907 4.010 57.372 6.254 91.647 6.254 56.946 0 93.857-10.24 122.768-32.032 31.142-23.152 50.72-60.055 50.72-113.010 0-57.381-20.911-96.969-49.822-121.441-31.594-26.245-79.631-38.696-138.362-38.696-35.146-0.011-60.053 2.205-76.95 4.421zM780.951 332.47c0-27.137-12.462-48.469-31.148-63.608-21.824-17.353-58.294-27.137-117.882-27.137-33.382 0-58.292 2.214-73.411 4.432v294.504c17.794 3.564 53.832 6.254 87.627 6.254 41.373 0 66.744-4.005 88.529-16.925 20.922-11.121 36.041-31.573 36.041-58.729 0-26.671-15.57-51.574-49.374-64.045v-0.883c34.256-9.353 59.618-35.156 59.618-73.862zM843.294 593.72h-662.587v326.121h465.136v-205.45c0-11.093 9-20.078 20.078-20.078h177.372v-100.593zM347.589 494.843c-15.107 0-24.907-1.324-30.675-2.647v-196.196c5.771-1.333 15.107-1.333 23.579-1.333 61.382-0.45 101.407 33.373 101.407 104.98 0.459 62.28-36.011 95.196-94.311 95.196z" />
<glyph unicode="&#xe927;" glyph-name="dds-icon" d="M317.382 401.393c0.402 56.294-32.579 86.064-85.266 86.064-13.66 0-22.52-1.218-27.749-2.432v-177.338c5.231-1.218 13.677-1.218 21.313-1.218 55.5-0.392 91.702 30.156 91.702 94.924zM511.999 487.456c-13.662 0-22.52-1.218-27.736-2.432v-177.338c5.231-1.218 13.673-1.218 21.31-1.218 55.506-0.392 91.702 30.156 91.702 94.924 0.392 56.294-32.577 86.064-85.276 86.064zM908.049 593.72h-24.589v118.641c0 0.74-0.116 1.485-0.204 2.241-0.039 4.706-1.548 9.333-4.774 12.999l-197.441 225.532c-0.062 0.058-0.12 0.078-0.159 0.14-1.177 1.315-2.547 2.409-4.002 3.354-0.428 0.288-0.861 0.529-1.311 0.783-1.255 0.682-2.59 1.255-3.961 1.668-0.374 0.097-0.708 0.25-1.078 0.347-1.492 0.355-3.040 0.575-4.607 0.575h-485.217c-22.156 0-40.156-18.021-40.156-40.158v-326.111h-24.585c-31.695 0-57.396-25.691-57.396-57.398v-298.468c0-31.677 25.7-57.394 57.396-57.394h24.585v-204.316c0-22.139 18-40.156 40.156-40.156h662.587c22.137 0 40.156 18.017 40.156 40.156v204.314h24.589c31.686 0 57.39 25.706 57.39 57.394v298.459c0.002 31.716-25.685 57.398-57.379 57.398zM180.705 919.842h465.139v-205.45c0-11.094 8.996-20.079 20.079-20.079h177.372v-100.592h-662.589v326.12zM662.412 403.391c0-51.881-18.9-87.655-45.028-109.805-28.55-23.702-71.984-34.96-125.071-34.96-31.785 0-54.294 1.998-69.584 4.021v266.241c22.531 3.603 51.883 5.61 82.844 5.61 51.475 0 84.859-9.26 110.996-28.944 28.154-20.921 45.843-54.288 45.843-102.163zM142.838 262.658v266.239c22.529 3.605 51.871 5.612 82.842 5.612 51.472 0 84.863-9.26 110.996-28.946 28.162-20.921 45.848-54.288 45.848-102.151 0-51.881-18.902-87.664-45.034-109.814-28.554-23.695-71.98-34.951-125.069-34.951-31.774-0.019-54.295 1.98-69.584 4.012zM843.295-12.971h-662.589v193.441h662.587v-193.441zM768.982 257.41c-30.961 0-61.531 8.042-76.815 16.5l12.461 50.669c16.5-8.43 41.824-16.893 67.97-16.893 28.149 0 43.030 11.648 43.030 29.352 0 16.893-12.881 26.571-45.432 38.225-45.056 15.681-74.41 40.61-74.41 80.028 0 46.248 38.607 81.647 102.549 81.647 30.565 0 53.098-6.456 69.177-13.682l-13.667-49.475c-10.862 5.231-30.177 12.881-56.707 12.881-26.559 0-39.412-12.078-39.412-26.143 0-17.304 15.264-24.951 50.256-38.225 47.862-17.685 70.381-42.627 70.381-80.821-0.002-45.45-34.999-84.062-109.381-84.062z" />
<glyph unicode="&#xe928;" glyph-name="dem-file-format-extension" d="M301.626 402.291c0.383 53.169-30.749 81.286-80.506 81.286-12.907 0-21.259-1.158-26.21-2.28v-167.494c4.951-1.154 12.922-1.154 20.127-1.154 52.428-0.355 86.589 28.507 86.589 89.642zM908.047 593.73h-24.589v118.643c0 0.745-0.116 1.485-0.204 2.241-0.039 4.706-1.546 9.333-4.774 12.999l-197.441 225.521c-0.058 0.058-0.12 0.082-0.159 0.14-1.175 1.315-2.547 2.409-3.999 3.354-0.431 0.288-0.863 0.529-1.315 0.783-1.255 0.682-2.589 1.255-3.961 1.668-0.372 0.097-0.704 0.25-1.076 0.347-1.494 0.355-3.042 0.575-4.607 0.575h-485.217c-22.157 0-40.156-18.021-40.156-40.158v-326.111h-24.584c-31.697 0-57.398-25.691-57.398-57.398v-298.468c0-31.677 25.7-57.394 57.398-57.394h24.584v-204.316c0-22.139 17.998-40.156 40.156-40.156h662.589c22.137 0 40.158 18.017 40.158 40.156v204.314h24.585c31.686 0 57.39 25.719 57.39 57.394v298.468c0.002 31.707-25.684 57.398-57.381 57.398zM180.705 919.842h465.137v-205.45c0-11.099 8.998-20.079 20.079-20.079h177.374v-100.592h-662.589v326.12zM553.393 425.479v-47.070h-94.177v-60.793h105.196v-47.471h-163.305v255.956h157.991v-47.475h-99.875v-53.158l94.167 0.011zM136.805 271.275v251.415c21.274 3.41 49.014 5.308 78.235 5.308 48.622 0 80.147-8.72 104.833-27.335 26.574-19.75 43.29-51.268 43.29-96.468 0-48.982-17.843-82.786-42.529-103.69-26.976-22.382-67.976-33.038-118.123-33.038-29.996 0.022-51.259 1.896-65.705 3.808zM843.295-12.96h-662.589v193.43h662.589v-193.43zM824.155 270.147l-3.782 97.981c-1.158 30.754-2.303 67.97-2.303 105.201h-1.128c-7.971-32.663-18.607-69.121-28.491-99.113l-31.137-99.903h-45.174l-27.363 99.141c-8.343 29.998-17.091 66.471-23.168 99.875h-0.762c-1.513-34.545-2.669-74.053-4.55-105.946l-4.559-97.234h-53.539l16.31 255.956h77.101l25.077-85.457c7.98-29.606 15.94-61.508 21.649-91.51h1.126c7.226 29.609 15.951 63.434 24.315 91.904l27.346 85.063h75.568l14.041-255.956h-56.578z" />
<glyph unicode="&#xe929;" glyph-name="dfx-file-format-symbol" d="M908.038 593.729h-24.589v118.643c0 0.746-0.117 1.485-0.216 2.24-0.039 4.705-1.549 9.338-4.763 13.001l-197.443 225.519c-0.048 0.063-0.108 0.084-0.147 0.141-1.177 1.314-2.549 2.413-3.999 3.354-0.429 0.288-0.863 0.53-1.313 0.785-1.257 0.68-2.59 1.255-3.962 1.666-0.372 0.099-0.706 0.251-1.078 0.35-1.491 0.351-3.040 0.573-4.609 0.573h-485.215c-22.157 0-40.157-18.020-40.157-40.159v-326.112h-24.587c-31.69 0-57.393-25.689-57.393-57.396v-298.471c0-31.676 25.7-57.391 57.393-57.391h24.589v-204.313c0-22.136 18-40.159 40.157-40.159h662.587c22.136 0 40.157 18.020 40.157 40.159v204.313h24.589c31.687 0 57.393 25.715 57.393 57.391v298.471c-0.002 31.707-25.708 57.396-57.394 57.396zM180.706 919.841h465.136v-205.45c0-11.093 9-20.078 20.078-20.078h177.372v-100.593h-662.587v326.121zM438.824 527.775h67.822l22.861-47.677c7.745-15.882 13.56-28.667 19.766-43.382h0.773c6.187 16.637 11.225 28.279 17.834 43.382l22.099 47.677h67.432l-73.628-127.509 77.49-133.696h-68.214l-23.627 47.273c-9.686 18.227-15.892 31.804-23.256 46.904h-0.764c-5.43-15.098-12.019-28.667-20.156-46.904l-21.701-47.273h-67.441l75.565 132.127-72.855 129.078zM429.559 403.373c0-49.98-18.221-84.45-43.421-105.783-27.506-22.873-69.363-33.715-120.509-33.715-30.623 0-52.304 1.93-67.043 3.873v256.542c21.707 3.495 49.986 5.432 79.832 5.432 49.603 0 81.78-8.916 106.966-27.913 27.108-20.156 44.176-52.314 44.176-98.436zM843.294-12.96h-662.589v193.431h662.587v-193.431zM852.666 479.323h-100.372v-59.685h93.783v-48.030h-93.783v-105.038h-59.294v261.205h159.666v-48.452zM284.613 484.363c-13.172 0-21.705-1.158-26.745-2.329v-170.897c5.038-1.156 13.181-1.156 20.539-1.156 53.488-0.402 88.352 29.078 88.352 91.45 0.392 54.271-31.391 82.933-82.147 82.933z" />
<glyph unicode="&#xe92a;" glyph-name="dll-file-format-symbol" d="M908.038 593.72h-24.589v118.641c0 0.74-0.117 1.485-0.216 2.235-0.039 4.711-1.537 9.338-4.763 13.004l-197.432 225.532c-0.059 0.058-0.117 0.078-0.158 0.141-1.177 1.314-2.549 2.408-3.999 3.354-0.429 0.288-0.863 0.53-1.313 0.779-1.257 0.686-2.59 1.255-3.962 1.666-0.372 0.104-0.706 0.257-1.078 0.353-1.491 0.353-3.040 0.574-4.609 0.574h-485.215c-22.157 0-40.157-18.020-40.157-40.159v-326.112h-24.583c-31.696 0-57.396-25.689-57.396-57.396v-298.471c0-31.685 25.7-57.391 57.396-57.391h24.585v-204.313c0-22.136 18-40.159 40.157-40.159h662.587c22.136 0 40.157 18.020 40.157 40.159v204.313h24.589c31.687 0 57.393 25.706 57.393 57.391v298.462c-0.002 31.705-25.708 57.396-57.394 57.396zM180.706 919.834h465.136v-205.456c0-11.093 9-20.078 20.078-20.078h177.372v-100.593h-662.587v326.127zM659.451 299.372v-56.941h-187.283v299.824h68.049v-242.884h119.234zM162.496 243.765v294.494c24.907 3.995 57.372 6.235 91.647 6.235 56.946 0 93.857-10.24 122.77-32.034 31.151-23.131 50.72-60.055 50.72-112.989 0-57.393-20.902-96.981-49.813-121.45-31.594-26.236-79.642-38.696-138.374-38.696-35.146-0.002-60.053 2.225-76.95 4.44zM843.294-12.971h-662.589v193.442h662.587v-193.442zM886.794 242.432h-187.285v299.824h68.069v-242.884h119.215v-56.941zM355.559 397.236c0.452 62.29-36.020 95.196-94.318 95.196-15.107 0-24.907-1.324-30.675-2.662v-196.201c5.771-1.313 15.107-1.313 23.579-1.313 61.392-0.452 101.414 33.352 101.414 104.98z" />
<glyph unicode="&#xe92b;" glyph-name="dmg-file-format-variant" d="M908.038 593.716h-24.589v118.658c0 0.74-0.117 1.485-0.216 2.237-0.039 4.709-1.537 9.336-4.763 13.004l-197.432 225.518c-0.059 0.058-0.117 0.078-0.158 0.138-1.177 1.318-2.549 2.411-3.999 3.352-0.429 0.294-0.863 0.535-1.313 0.785-1.257 0.686-2.59 1.255-3.962 1.666-0.372 0.104-0.706 0.251-1.078 0.353-1.491 0.353-3.040 0.574-4.609 0.574h-485.215c-22.157 0-40.157-18.024-40.157-40.159v-326.116h-24.587c-31.681 0-57.393-25.691-57.393-57.393v-298.471c0-31.685 25.712-57.391 57.393-57.391h24.589v-204.313c0-22.136 18-40.159 40.157-40.159h662.587c22.136 0 40.157 18.020 40.157 40.159v204.301h24.589c31.707 0 57.393 25.717 57.393 57.402v298.462c-0.002 31.711-25.689 57.393-57.394 57.393zM180.706 919.841h465.136v-205.456c0-11.093 9-20.078 20.078-20.078h177.372v-100.593h-662.587v326.127zM672.628 260.344h-56.197l-3.765 97.263c-1.117 30.579-2.264 67.54-2.264 104.515h-1.127c-7.922-32.445-18.472-68.672-28.275-98.477l-30.941-99.156h-44.888l-27.156 98.412c-8.29 29.785-16.957 66-22.995 99.221h-0.744c-1.485-34.34-2.633-73.554-4.531-105.25l-4.525-96.529h-53.182l16.236 254.176h76.53l24.916-84.842c7.922-29.443 15.828-61.098 21.495-90.912h1.119c7.174 29.443 15.841 63.002 24.135 91.286l27.149 84.471h75.069l13.941-254.178zM135.196 261.473v249.66c21.103 3.398 48.632 5.274 77.666 5.274 48.279 0 79.589-8.667 104.093-27.156 26.396-19.589 42.979-50.897 42.979-95.78 0-48.657-17.73-82.215-42.235-102.941-26.784-22.265-67.495-32.832-117.299-32.832-29.774 0.007-50.886 1.911-65.205 3.774zM843.294-12.96h-662.589v193.42h662.587v-193.42zM929.135 272.029c-17.725-6.048-51.274-14.332-84.861-14.332-46.392 0-79.942 11.675-103.333 34.314-23.354 21.884-36.176 55.048-35.825 92.411 0.392 84.485 61.843 132.726 145.206 132.726 32.804 0 58.067-6.392 70.52-12.426l-12.058-46c-13.962 6.044-31.315 10.941-59.207 10.941-47.893 0-84.097-27.15-84.097-82.21 0-52.432 32.813-83.353 79.942-83.353 13.205 0 23.763 1.491 28.285 3.763v53.178h-39.207v44.862h94.647v-133.873h-0.011zM298.848 391.588c0.392 52.804-30.53 80.706-79.942 80.706-12.843 0-21.121-1.136-26.024-2.279v-166.309c4.902-1.138 12.819-1.138 19.98-1.138 52.044-0.351 85.986 28.296 85.986 89.020z" />
<glyph unicode="&#xe92c;" glyph-name="dmp-file-format-symbol" d="M908.038 593.72h-24.589v118.656c0 0.74-0.117 1.485-0.216 2.235-0.039 4.711-1.537 9.338-4.763 13.006l-197.432 225.521c-0.059 0.058-0.117 0.078-0.158 0.136-1.177 1.318-2.549 2.413-3.999 3.354-0.429 0.294-0.863 0.534-1.313 0.785-1.257 0.686-2.59 1.255-3.962 1.666-0.372 0.104-0.706 0.251-1.078 0.353-1.491 0.353-3.040 0.569-4.609 0.569h-485.215c-22.151 0-40.157-18.020-40.157-40.159v-326.112h-24.583c-31.696 0-57.396-25.689-57.396-57.391v-298.465c0-31.687 25.7-57.393 57.396-57.393h24.585v-204.322c0-22.136 18.005-40.159 40.157-40.159h662.587c22.136 0 40.157 18.020 40.157 40.159v204.313h24.589c31.698 0 57.393 25.706 57.393 57.391v298.465c-0.002 31.713-25.689 57.393-57.394 57.393zM180.706 919.841h465.136v-205.45c0-11.093 9-20.078 20.078-20.078h177.372v-100.593h-662.587v326.121zM681.039 259.119h-57.911l-3.893 100.275c-1.166 31.471-2.333 69.559-2.333 107.667h-1.168c-8.167-33.414-19.048-70.765-29.147-101.433l-31.863-102.214h-46.255l-27.98 101.431c-8.563 30.686-17.5 68.001-23.715 102.225h-0.77c-1.56-35.401-2.72-75.794-4.672-108.44l-4.666-99.501h-54.794l16.706 261.941h78.897l25.652-87.412c8.167-30.324 16.323-62.97 22.157-93.686h1.168c7.371 30.324 16.312 64.902 24.871 94.038l27.981 87.058h77.352l14.382-261.949zM127.148 260.275v257.29c21.765 3.495 50.136 5.451 80.063 5.451 49.746 0 82-8.965 107.28-27.976 27.206-20.201 44.295-52.481 44.295-98.745 0-50.116-18.26-84.705-43.52-106.086-27.598-22.912-69.573-33.814-120.872-33.814-30.722-0.004-52.477 1.958-67.246 3.88zM843.294-12.96h-662.589v193.431h662.587v-193.431zM890.568 379.225c-20.207-19.069-50.138-27.617-85.118-27.617-7.786 0-14.765 0.392-20.216 1.197v-93.686h-58.685v258.446c18.264 3.112 43.921 5.451 80.057 5.451 36.539 0 62.578-6.985 80.077-20.98 16.706-13.209 27.981-34.974 27.981-60.642 0-25.658-8.548-47.392-24.098-62.169zM809.736 478.323c-12.058 0-20.207-1.136-24.481-2.324v-77.354c5.038-1.156 11.274-1.569 19.813-1.569 31.482 0 50.912 15.942 50.912 42.797 0 24.064-16.706 38.45-46.244 38.45zM295.829 394.373c0.392 54.412-31.495 83.165-82.401 83.165-13.211 0-21.765-1.136-26.825-2.318v-171.395c5.049-1.158 13.211-1.158 20.608-1.158 53.633-0.411 88.618 29.156 88.618 91.706z" />
<glyph unicode="&#xe92d;" glyph-name="doc-file-format" d="M908.037 593.715h-24.585v118.657c0 0.74-0.12 1.485-0.217 2.234-0.039 4.712-1.539 9.338-4.764 13.004l-197.432 225.523c-0.058 0.058-0.12 0.078-0.159 0.14-1.175 1.315-2.547 2.409-3.999 3.354-0.431 0.288-0.863 0.529-1.315 0.781-1.255 0.684-2.589 1.253-3.961 1.666-0.372 0.103-0.704 0.25-1.076 0.351-1.494 0.355-3.042 0.575-4.607 0.575h-485.217c-22.157 0-40.156-18.021-40.156-40.158v-326.117h-24.584c-31.697 0-57.398-25.685-57.398-57.392v-298.468c0-31.677 25.7-57.394 57.398-57.394h24.584v-204.316c0-22.139 17.998-40.156 40.156-40.156h662.589c22.137 0 40.158 18.017 40.158 40.156v204.314h24.585c31.686 0 57.39 25.706 57.39 57.394v298.459c0.002 31.716-25.704 57.392-57.39 57.392zM180.705 919.842h465.137v-205.45c0-11.099 8.998-20.079 20.079-20.079h177.374v-100.598h-662.589v326.126zM662.518 403.411c0-91.284-55.345-146.618-136.725-146.618-82.603 0-130.931 62.364-130.931 141.657 0 83.44 53.28 145.803 135.472 145.803 85.489 0 132.185-64.009 132.185-140.843zM120.172 262.57v273.41c23.129 3.726 53.274 5.793 85.093 5.793 52.863 0 87.138-9.504 113.987-29.734 28.911-21.483 47.094-55.769 47.094-104.912 0-53.283-19.408-90.038-46.25-112.754-29.329-24.372-73.941-35.929-128.466-35.929-32.648-0.002-55.767 2.064-71.457 4.126zM843.295-12.96h-662.589v193.43h662.589v-193.43zM846.331 309.233c19.001 0 40.070 4.152 52.452 9.090l9.512-49.146c-11.572-5.805-37.59-11.97-71.451-11.97-96.235 0-145.803 59.882-145.803 139.186 0 94.974 67.733 147.861 151.978 147.861 32.627 0 57.431-6.608 68.59-12.397l-12.814-49.966c-12.795 5.364-30.558 10.33-52.87 10.33-49.974 0-88.805-30.156-88.805-92.104-0.009-55.763 33.038-90.884 89.213-90.884zM299.421 405.061c0.413 57.836-33.462 88.396-87.554 88.396-14.045 0-23.151-1.234-28.509-2.482v-182.153c5.356-1.242 14.045-1.242 21.896-1.242 56.992-0.403 94.167 30.989 94.167 97.48zM461.362 399.706c0-54.538 25.613-92.942 67.737-92.942 42.548 0 66.911 40.49 66.911 94.588 0 49.992-23.95 92.929-67.324 92.929-42.524-0.011-67.324-40.486-67.324-94.574z" />
<glyph unicode="&#xe92e;" glyph-name="docx-file-format-symbol" d="M908.039 593.72h-24.589v118.641c0 0.745-0.116 1.485-0.215 2.241-0.039 4.71-1.541 9.338-4.766 12.999l-197.428 225.536c-0.062 0.058-0.12 0.078-0.159 0.136-1.177 1.315-2.547 2.413-4.002 3.354-0.428 0.293-0.861 0.534-1.311 0.783-1.255 0.682-2.59 1.255-3.961 1.668-0.374 0.097-0.708 0.25-1.078 0.351-1.492 0.351-3.040 0.571-4.607 0.571h-485.217c-22.156 0-40.156-18.021-40.156-40.158v-326.111h-24.585c-31.695 0-57.396-25.691-57.396-57.392v-298.465c0-31.686 25.7-57.403 57.396-57.403h24.585v-204.316c0-22.139 18-40.156 40.156-40.156h662.587c22.137 0 40.156 18.017 40.156 40.156v204.314h24.589c31.686 0 57.39 25.706 57.39 57.394v298.465c0.002 31.701-25.702 57.392-57.388 57.392zM180.705 919.833h465.139v-205.45c0-11.094 8.996-20.079 20.079-20.079h177.372v-100.592h-662.589v326.12zM686.439 332.765c14.648 0 30.904 3.177 40.464 7.020l7.314-37.915c-8.905-4.437-28.965-9.243-55.082-9.243-74.234 0-112.438 46.186-112.438 107.336 0 73.259 52.236 114.028 117.216 114.028 25.148 0 44.272-5.112 52.872-9.56l-9.87-38.548c-9.874 4.157-23.56 7.962-40.774 7.962-38.55 0-68.473-23.241-68.473-71.020-0.011-42.961 25.471-70.060 68.771-70.060zM544.686 405.372c0-70.381-42.683-113.060-105.416-113.060-63.71 0-100.975 48.108-100.975 109.247 0 64.334 41.078 112.442 104.475 112.442 65.951 0 101.916-49.384 101.916-108.628zM126.475 296.763v210.86c17.84 2.861 41.086 4.436 65.61 4.436 40.77 0 67.199-7.314 87.881-22.927 22.309-16.553 36.335-42.995 36.335-80.889 0-41.076-14.973-69.44-35.681-86.949-22.619-18.785-57.015-27.717-99.068-27.717-25.14 0.009-42.978 1.61-55.076 3.186zM843.295-12.971h-662.589v193.441h662.587v-193.441zM880.107 295.823l-19.44 38.854c-7.962 14.963-13.058 26.128-19.108 38.54h-0.639c-4.46-12.431-9.861-23.577-16.549-38.54l-17.84-38.854h-55.422l62.106 108.617-59.865 106.055h55.747l18.785-39.19c6.374-13.034 11.137-23.558 16.237-35.657h0.626c5.097 13.693 9.254 23.244 14.648 35.657l18.155 39.19h55.437l-60.522-104.779 63.695-109.893h-56.051zM264.696 406.667c0.308 44.578-25.799 68.157-67.515 68.157-10.845 0-17.84-0.96-21.986-1.918v-140.445c4.157-0.951 10.843-0.951 16.896-0.951 43.953-0.334 72.604 23.861 72.604 75.157zM389.593 402.528c0-42.049 19.75-71.664 52.236-71.664 32.809 0 51.578 31.195 51.578 72.921 0 38.55-18.461 71.674-51.922 71.674-32.799-0.009-51.892-31.225-51.892-72.931z" />
<glyph unicode="&#xe92f;" glyph-name="drv-file-format-symbol" d="M518.052 487.496c-15.49 0-24.274-1.255-28.881-2.099v-77.867h25.118c31.808 0 50.651 15.903 50.651 40.612 0 25.961-17.569 38.92-46.889 39.354zM908.038 593.729h-24.589v118.643c0 0.746-0.117 1.485-0.216 2.24-0.039 4.705-1.549 9.338-4.763 13.001l-197.443 225.519c-0.048 0.063-0.108 0.084-0.147 0.141-1.177 1.314-2.549 2.413-3.999 3.354-0.429 0.288-0.863 0.53-1.313 0.785-1.257 0.68-2.59 1.255-3.962 1.666-0.372 0.099-0.706 0.251-1.078 0.35-1.491 0.351-3.040 0.573-4.609 0.573h-485.215c-22.157 0-40.157-18.020-40.157-40.159v-326.112h-24.587c-31.69 0-57.393-25.689-57.393-57.396v-298.471c0-31.676 25.7-57.391 57.393-57.391h24.589v-204.313c0-22.136 18-40.159 40.157-40.159h662.587c22.136 0 40.157 18.020 40.157 40.159v204.313h24.589c31.687 0 57.393 25.715 57.393 57.391v298.471c-0.002 31.707-25.708 57.396-57.394 57.396zM180.706 919.841h465.136v-205.45c0-11.093 9-20.078 20.078-20.078h177.372v-100.593h-662.587v326.121zM616.020 330.079c8.784-31.824 17.569-68.668 23.020-79.549h-65.314c-4.609 7.961-11.292 30.98-19.666 65.727-7.529 35.176-19.686 44.805-45.632 45.215h-19.264v-110.942h-63.212v278.407c20.51 3.352 51.073 5.862 84.986 5.862 41.869 0 71.161-6.274 91.26-22.216 16.745-13.393 25.961-33.059 25.961-59.019 0-36.005-25.527-60.711-49.824-69.494v-1.255c19.686-7.951 30.567-26.775 37.686-52.736zM134.525 251.785v277.152c23.442 3.763 54 5.862 86.235 5.862 53.593 0 88.338-9.628 115.553-30.157 29.303-21.765 47.716-56.51 47.716-106.308 0-54.048-19.668-91.286-46.883-114.324-29.716-24.706-74.944-36.411-130.201-36.411-33.068 0.009-56.519 2.106-72.42 4.185zM843.294-12.96h-662.589v193.431h662.587v-193.431zM812.812 250.53h-74.509l-90.44 282.17h69.921l34.334-119.308c9.617-33.518 18.411-65.734 25.118-100.911h1.255c7.117 33.921 15.912 67.393 25.527 99.656l36 120.563h67.822l-95.028-282.17zM316.225 396.215c0.422 58.612-33.912 89.592-88.76 89.592-14.235 0-23.442-1.255-28.883-2.51v-184.613c5.442-1.255 14.235-1.255 22.187-1.255 57.779-0.429 95.456 31.395 95.456 98.786z" />
<glyph unicode="&#xe930;" glyph-name="dtd-file-format-symbol" d="M908.040 593.72h-24.589v118.641c0 0.746-0.117 1.485-0.216 2.24-0.039 4.705-1.549 9.335-4.765 12.999l-197.432 225.532c-0.058 0.058-0.117 0.084-0.156 0.141-1.177 1.314-2.549 2.408-3.999 3.354-0.431 0.288-0.864 0.534-1.314 0.785-1.255 0.68-2.59 1.255-3.962 1.666-0.372 0.099-0.705 0.251-1.078 0.35-1.489 0.351-3.040 0.573-4.609 0.573h-485.213c-22.157 0-40.157-18.020-40.157-40.159v-326.112h-24.589c-31.681 0-57.393-25.689-57.393-57.396v-298.471c0-31.676 25.712-57.391 57.393-57.391h24.589v-204.313c0-22.136 18-40.159 40.157-40.159h662.587c22.136 0 40.159 18.020 40.159 40.159v204.313h24.589c31.705 0 57.391 25.706 57.391 57.391v298.462c-0.002 31.716-25.689 57.396-57.393 57.396zM180.707 919.834h465.136v-205.45c0-11.093 9-20.078 20.078-20.078h177.372v-100.593h-662.587v326.121zM391.216 484.897v53.524h216.549v-53.524h-76.943v-228.211h-63.94v228.211h-75.666zM133.222 257.922v276.736c23.412 3.763 53.896 5.852 86.112 5.852 53.49 0 88.196-9.626 115.373-30.084 29.235-21.765 47.647-56.441 47.647-106.192 0-53.901-19.668-91.096-46.844-114.118-29.668-24.646-74.803-36.372-129.956-36.372-33.038 0-56.431 2.099-72.332 4.177zM843.294-12.971h-662.587v193.442h662.587v-193.442zM843.98 290.118c-29.666-24.646-74.824-36.372-130.021-36.372-32.999 0-56.411 2.099-72.293 4.177v276.734c23.412 3.763 53.881 5.852 86.116 5.852 53.49 0 88.178-9.626 115.375-30.084 29.216-21.765 47.627-56.441 47.627-106.192 0.002-53.901-19.627-91.095-46.803-114.116zM734.451 491.603c-14.215 0-23.391-1.255-28.824-2.489v-184.348c5.432-1.255 14.215-1.255 22.157-1.255 57.686-0.452 95.276 31.333 95.276 98.628 0.429 58.523-33.864 89.464-88.609 89.464zM314.628 402.139c0.413 58.523-33.862 89.466-88.583 89.466-14.259 0-23.432-1.255-28.863-2.489v-184.348c5.432-1.255 14.215-1.255 22.153-1.255 57.684-0.454 95.292 31.33 95.292 98.626z" />
<glyph unicode="&#xe931;" glyph-name="dwg-file-format-variant" d="M908.040 593.729h-24.589v118.643c0 0.746-0.117 1.485-0.216 2.24-0.039 4.705-1.539 9.335-4.765 13.001l-197.432 225.519c-0.058 0.058-0.117 0.084-0.156 0.141-1.177 1.314-2.549 2.408-3.999 3.354-0.431 0.288-0.864 0.53-1.314 0.785-1.255 0.68-2.59 1.255-3.962 1.666-0.372 0.099-0.705 0.251-1.078 0.35-1.489 0.351-3.040 0.573-4.609 0.573h-485.213c-22.157 0-40.157-18.020-40.157-40.159v-326.112h-24.583c-31.687 0-57.398-25.689-57.398-57.396v-298.471c0-31.676 25.712-57.391 57.398-57.391h24.583v-204.313c0-22.136 18-40.159 40.157-40.159h662.587c22.136 0 40.159 18.020 40.159 40.159v204.313h24.589c31.705 0 57.391 25.715 57.391 57.391v298.471c-0.002 31.707-25.689 57.396-57.393 57.396zM180.707 919.841h465.136v-205.45c0-11.099 9-20.078 20.078-20.078h177.372v-100.593h-662.587v326.121zM668.902 512.642l-63.158-244.72h-59.921l-20.71 105.285c-4.711 24.685-8.725 47.567-11.608 75.523h-0.719c-4.378-27.632-8.353-50.837-14.157-75.523l-23.231-105.285h-60.648l-58.107 244.72h59.192l18.515-100.946c5.451-29.039 10.528-60.627 14.523-85.315h0.725c3.995 26.5 9.809 55.902 15.981 86.040l20.69 100.21h58.819l19.608-103.103c5.453-28.705 9.422-54.842 13.088-82.076h0.718c3.616 27.234 9.048 55.9 14.137 84.959l19.991 100.21 56.275 0.020zM125.040 269v240.366c20.328 3.276 46.824 5.083 74.785 5.083 46.491 0 76.608-8.353 100.212-26.15 25.425-18.868 41.367-49.004 41.367-92.203 0-46.863-17.035-79.155-40.648-99.117-25.76-21.43-64.985-31.586-112.921-31.586-28.662 0-49.010 1.803-62.795 3.607zM843.294-12.96h-662.587v193.431h662.587v-193.431zM899.040 279.177c-17.059-5.784-49.354-13.783-81.686-13.783-44.648 0-76.96 11.255-99.472 33.020-22.508 21.088-34.882 53.020-34.49 88.96 0.353 81.338 59.531 127.799 139.783 127.799 31.568 0 55.902-6.152 67.902-11.956l-11.629-44.293c-13.432 5.784-30.136 10.51-56.998 10.51-46.099 0-80.981-26.137-80.981-79.157 0-50.453 31.588-80.215 76.98-80.215 12.735 0 22.882 1.432 27.225 3.607v51.196h-37.755v43.215h91.119v-128.901zM282.585 394.274c0.392 50.824-29.374 77.696-76.941 77.696-12.339 0-20.329-1.093-25.053-2.196v-160.088c4.726-1.099 12.348-1.099 19.234-1.099 50.112-0.351 82.76 27.236 82.76 85.686z" />
<glyph unicode="&#xe932;" glyph-name="elf-file-format" d="M908.039 593.72h-24.589v118.641c0 0.745-0.116 1.485-0.215 2.241-0.039 4.71-1.541 9.338-4.766 12.999l-197.428 225.536c-0.062 0.058-0.12 0.078-0.159 0.136-1.177 1.315-2.547 2.413-4.002 3.354-0.428 0.293-0.861 0.534-1.311 0.783-1.255 0.682-2.59 1.255-3.961 1.668-0.374 0.097-0.708 0.25-1.078 0.351-1.492 0.351-3.040 0.571-4.607 0.571h-485.217c-22.156 0-40.156-18.021-40.156-40.158v-326.111h-24.585c-31.695 0-57.396-25.691-57.396-57.392v-298.465c0-31.686 25.7-57.403 57.396-57.403h24.585v-204.316c0-22.139 18-40.156 40.156-40.156h662.587c22.137 0 40.156 18.017 40.156 40.156v204.314h24.589c31.686 0 57.39 25.706 57.39 57.394v298.465c0.002 31.701-25.702 57.392-57.388 57.392zM180.705 919.833h465.139v-205.45c0-11.094 8.996-20.079 20.079-20.079h177.372v-100.592h-662.589v326.12zM622.734 305.156v-56.94h-187.304v299.847h68.069v-242.907h119.235zM376.249 430.154v-55.155h-110.339v-71.175h123.229v-55.629h-191.306v299.867h185.074v-55.616h-116.995v-62.293h110.337zM843.295-12.971h-662.589v193.441h662.587v-193.441zM846.089 492.447h-115.247v-68.504h107.667v-55.16h-107.667v-120.568h-68.075v299.848h183.322v-55.616z" />
</font>
</defs>
</svg>
